<?xml version="1.0" encoding="UTF-8" standalone="no"?>
<!-- Created with Inkscape (http://www.inkscape.org/) -->

<svg
   xmlns:dc="http://purl.org/dc/elements/1.1/"
   xmlns:cc="http://creativecommons.org/ns#"
   xmlns:rdf="http://www.w3.org/1999/02/22-rdf-syntax-ns#"
   xmlns:svg="http://www.w3.org/2000/svg"
   xmlns="http://www.w3.org/2000/svg"
   xmlns:sodipodi="http://sodipodi.sourceforge.net/DTD/sodipodi-0.dtd"
   xmlns:inkscape="http://www.inkscape.org/namespaces/inkscape"
   width="106.579"
   height="17.402"
   id="svg2"
   version="1.1"
   inkscape:version="0.48.2 r9819"
   sodipodi:docname="logo.svg">
  <defs
     id="defs4" />
  <sodipodi:namedview
     id="base"
     pagecolor="#ffffff"
     bordercolor="#666666"
     borderopacity="1.0"
     inkscape:pageopacity="0"
     inkscape:pageshadow="2"
     inkscape:zoom="3.959798"
     inkscape:cx="49.746554"
     inkscape:cy="14.840613"
     inkscape:document-units="px"
     inkscape:current-layer="layer1"
     showgrid="false"
     units="px"
     fit-margin-top="0"
     fit-margin-left="0"
     fit-margin-right="0"
     fit-margin-bottom="0"
     inkscape:window-width="1440"
     inkscape:window-height="795"
     inkscape:window-x="0"
     inkscape:window-y="0"
     inkscape:window-maximized="1" />
  <metadata
     id="metadata7">
    <rdf:RDF>
      <cc:Work
         rdf:about="">
        <dc:format>image/svg+xml</dc:format>
        <dc:type
           rdf:resource="http://purl.org/dc/dcmitype/StillImage" />
        <dc:title />
      </cc:Work>
    </rdf:RDF>
  </metadata>
  <g
     inkscape:label="Layer 1"
     inkscape:groupmode="layer"
     id="layer1"
     transform="translate(-129.45143,-415.09218)">
    <g
       style="font-size:10px;font-style:italic;font-variant:normal;font-weight:800;font-stretch:normal;line-height:125%;letter-spacing:0px;word-spacing:0px;fill:#ffffff;fill-opacity:1;stroke:none;font-family:Exo;-inkscape-font-specification:Exo Ultra-Bold Italic"
       id="text2985">
      <path
         d="m 137.65743,424.15618 c -1e-5,-0.60132 -0.28601,-0.90199 -0.858,-0.902 -0.51334,10e-6 -0.96068,0.0733 -1.342,0.22 -0.36668,0.14668 -0.72601,0.38134 -1.078,0.704 l -1.32,8.184 -3.608,0 2.728,-17.204 3.608,0 -1.078,6.732 c 0.99732,-0.71865 1.84799,-1.15132 2.552,-1.298 0.36665,-0.0733 0.82865,-0.10999 1.386,-0.11 0.55732,10e-6 1.05599,0.11001 1.496,0.33 0.43998,0.22001 0.74065,0.52068 0.902,0.902 0.20532,0.48401 0.30798,0.99735 0.308,1.54 -2e-5,0.52801 -0.044,1.01201 -0.132,1.452 l -1.21,7.656 -3.608,0 1.21,-7.7 c 0.0293,-0.19066 0.044,-0.35932 0.044,-0.506"
         style="font-size:22px;fill:#ffffff"
         id="path2993" />
      <path
         d="m 148.49758,420.46018 c 0.89466,1e-5 1.83333,0.10268 2.816,0.308 0.98266,0.20535 1.73066,0.55735 2.244,1.056 l -1.54,10.494 -2.816,0 -0.55,-1.144 c -0.27867,0.396 -0.74067,0.71867 -1.386,0.968 -0.63067,0.23467 -1.28334,0.352 -1.958,0.352 -1.188,0 -2.09,-0.58666 -2.706,-1.76 -0.352,-0.68933 -0.528,-1.47399 -0.528,-2.354 0,-0.87999 0.0807,-1.71599 0.242,-2.508 0.16133,-0.79199 0.34467,-1.45199 0.55,-1.98 0.22,-0.54266 0.44733,-0.98999 0.682,-1.342 0.23467,-0.36665 0.506,-0.67465 0.814,-0.924 0.32267,-0.26399 0.616,-0.46932 0.88,-0.616 0.27866,-0.14665 0.60866,-0.25665 0.99,-0.33 0.63066,-0.14665 1.386,-0.21999 2.266,-0.22 m 1.21,2.948 c -0.33734,-0.14665 -0.68201,-0.21999 -1.034,-0.22 -0.33734,1e-5 -0.60134,0.022 -0.792,0.066 -0.176,0.0293 -0.32267,0.066 -0.44,0.11 -0.10267,0.044 -0.22734,0.11001 -0.374,0.198 -0.14667,0.0733 -0.27134,0.18334 -0.374,0.33 -0.10267,0.13201 -0.20534,0.30068 -0.308,0.506 -0.22,0.39601 -0.38134,0.96068 -0.484,1.694 -0.11734,0.85067 -0.176,1.50334 -0.176,1.958 0,0.98267 0.374,1.47401 1.122,1.474 0.968,10e-6 1.67199,-0.37399 2.112,-1.122 l 0.748,-4.994"
         style="font-size:22px;fill:#ffffff"
         id="path2995" />
      <path
         d="m 161.80586,424.15618 c -1e-5,-0.60132 -0.286,-0.90199 -0.858,-0.902 -0.51334,10e-6 -0.96067,0.0733 -1.342,0.22 -0.36667,0.14668 -0.726,0.38134 -1.078,0.704 l -1.32,8.184 -3.608,0 1.848,-11.682 2.97,0 0.462,1.21 c 1.04133,-0.74799 1.892,-1.18065 2.552,-1.298 0.35199,-0.0733 0.80666,-0.10999 1.364,-0.11 0.55733,10e-6 1.05599,0.11001 1.496,0.33 0.43999,0.22001 0.74066,0.52068 0.902,0.902 0.20532,0.48401 0.30799,0.99735 0.308,1.54 -1e-5,0.52801 -0.044,1.01201 -0.132,1.452 l -1.21,7.656 -3.608,0 1.21,-7.7 c 0.0293,-0.19066 0.044,-0.35932 0.044,-0.506"
         style="font-size:22px;fill:#ffffff"
         id="path2997" />
      <path
         d="m 167.89402,422.00018 c 0.352,-0.51332 0.80666,-0.88732 1.364,-1.122 0.572,-0.24932 1.34199,-0.37399 2.31,-0.374 0.98266,10e-6 1.93599,0.24201 2.86,0.726 l 0.968,-6.138 3.608,0 -2.75,17.27 -3.014,0 -0.44,-1.144 c -1.14401,0.85067 -2.25867,1.276 -3.344,1.276 -1.32,0 -2.22934,-0.616 -2.728,-1.848 -0.27867,-0.74799 -0.418,-1.52533 -0.418,-2.332 0,-0.82133 0.0733,-1.64266 0.22,-2.464 0.14667,-0.83599 0.32266,-1.55466 0.528,-2.156 0.20533,-0.61599 0.484,-1.18065 0.836,-1.694 m 3.322,1.43 c -0.19067,0.13201 -0.38134,0.44001 -0.572,0.924 -0.19067,0.48401 -0.34467,1.12934 -0.462,1.936 -0.11734,0.79201 -0.176,1.37867 -0.176,1.76 0,0.38134 0.0293,0.66001 0.088,0.836 0.11733,0.41067 0.40333,0.61601 0.858,0.616 0.95333,10e-6 1.70133,-0.20533 2.244,-0.616 l 0.836,-5.28 c -0.45468,-0.26399 -1.15134,-0.39599 -2.09,-0.396 -0.29334,1e-5 -0.53534,0.0734 -0.726,0.22"
         style="font-size:22px;fill:#ffffff"
         id="path2999" />
      <path
         d="m 183.77424,429.59018 c 0.41066,1e-5 0.65266,-0.19066 0.726,-0.572 l 0.066,-0.374 c 0.044,-0.27866 0.007,-0.44733 -0.11,-0.506 -0.11734,-0.0587 -0.26401,-0.088 -0.44,-0.088 l -2.376,0 c -1.43734,10e-6 -2.36134,-0.54999 -2.772,-1.65 -0.132,-0.35199 -0.198,-0.68932 -0.198,-1.012 0,-0.33732 0.0147,-0.63799 0.044,-0.902 l 0.176,-1.034 c 0.16133,-0.95332 0.52066,-1.67199 1.078,-2.156 0.55733,-0.49865 1.40066,-0.74799 2.53,-0.748 1.14399,10e-6 2.03866,0.007 2.684,0.022 0.65999,0.0147 1.36399,0.0807 2.112,0.198 0.74799,0.10268 1.23199,0.25668 1.452,0.462 l -0.352,2.2 -5.104,0 c -0.27867,10e-6 -0.47667,0.0513 -0.594,0.154 -0.11734,0.088 -0.19801,0.24201 -0.242,0.462 l -0.044,0.374 c -0.044,0.20534 -0.0513,0.33001 -0.022,0.374 0.044,0.044 0.0733,0.0807 0.088,0.11 0.0147,0.0147 0.0367,0.0293 0.066,0.044 0.044,0.0147 0.0733,0.0293 0.088,0.044 0.0147,10e-6 0.044,10e-6 0.088,0 0.0587,10e-6 0.0953,10e-6 0.11,0 0.0147,10e-6 0.0513,10e-6 0.11,0 0.0587,10e-6 0.088,10e-6 0.088,0 l 2.486,0 c 1.08532,10e-6 1.85532,0.33734 2.31,1.012 0.32265,0.48401 0.48399,1.04867 0.484,1.694 -1e-5,0.23467 -0.0147,0.46934 -0.044,0.704 l -0.22,1.32 c -0.17601,1.15867 -0.61601,1.92867 -1.32,2.31 -0.58668,0.308 -1.24668,0.462 -1.98,0.462 -0.71867,0 -1.29067,0 -1.716,0 -0.41067,0 -0.93134,-0.0147 -1.562,-0.044 -0.63067,-0.0293 -1.13667,-0.066 -1.518,-0.11 -0.968,-0.11733 -1.57667,-0.30066 -1.826,-0.55 l 0.33,-2.2 5.324,0"
         style="font-size:22px;fill:#ffffff"
         id="path3001" />
      <path
         d="m 196.13308,420.52618 c 1.96533,10e-6 3.28532,0.52068 3.96,1.562 0.43999,0.68935 0.65999,1.63534 0.66,2.838 -1e-5,0.64534 -0.066,1.39334 -0.198,2.244 -0.13201,0.83601 -0.30801,1.55467 -0.528,2.156 -0.20534,0.60134 -0.46201,1.11467 -0.77,1.54 -0.30801,0.41067 -0.69667,0.73334 -1.166,0.968 -0.88001,0.42534 -2.14134,0.638 -3.784,0.638 -1.96533,0 -3.3,-0.49866 -4.004,-1.496 -0.45467,-0.67466 -0.682,-1.60599 -0.682,-2.794 0,-0.57199 0.066,-1.26866 0.198,-2.09 0.132,-0.83599 0.308,-1.58399 0.528,-2.244 0.23467,-0.65999 0.51333,-1.20999 0.836,-1.65 0.32267,-0.43999 0.726,-0.78465 1.21,-1.034 0.88,-0.42532 2.12666,-0.63799 3.74,-0.638 m -0.616,2.772 c -0.66,10e-6 -1.122,0.19801 -1.386,0.594 -0.264,0.39601 -0.484,1.14401 -0.66,2.244 -0.176,1.10001 -0.264,1.77467 -0.264,2.024 0,0.23467 0.007,0.43267 0.022,0.594 0.0147,0.16134 0.0513,0.30801 0.11,0.44 0.0587,0.13201 0.16133,0.23467 0.308,0.308 0.20533,0.11734 0.53533,0.17601 0.99,0.176 0.45466,10e-6 0.78466,-0.022 0.99,-0.066 0.20533,-0.044 0.39599,-0.16866 0.572,-0.374 0.19066,-0.21999 0.33733,-0.52066 0.44,-0.902 0.10266,-0.38133 0.21999,-0.94599 0.352,-1.694 0.13199,-0.76266 0.19799,-1.28332 0.198,-1.562 -1e-5,-0.83599 -0.11734,-1.34199 -0.352,-1.518 -0.22001,-0.17599 -0.66001,-0.26399 -1.32,-0.264"
         style="font-size:22px;fill:#ffffff"
         id="path3003" />
      <path
         d="m 209.45821,424.15618 c -1e-5,-0.60132 -0.28601,-0.90199 -0.858,-0.902 -0.51334,10e-6 -0.96068,0.0733 -1.342,0.22 -0.36668,0.14668 -0.72601,0.38134 -1.078,0.704 l -1.32,8.184 -3.608,0 1.848,-11.682 2.97,0 0.462,1.21 c 1.04132,-0.74799 1.89199,-1.18065 2.552,-1.298 0.35199,-0.0733 0.80665,-0.10999 1.364,-0.11 0.55732,10e-6 1.05599,0.11001 1.496,0.33 0.43999,0.22001 0.74065,0.52068 0.902,0.902 0.20532,0.48401 0.30798,0.99735 0.308,1.54 -2e-5,0.52801 -0.044,1.01201 -0.132,1.452 l -1.21,7.656 -3.608,0 1.21,-7.7 c 0.0293,-0.19066 0.044,-0.35932 0.044,-0.506"
         style="font-size:22px;fill:#ffffff"
         id="path3005" />
      <path
         d="m 214.84236,429.06218 2.156,0 c 0.308,10e-6 0.462,0.13201 0.462,0.396 0,0.044 0,0.0953 0,0.154 l -0.374,2.244 c -0.0587,0.33734 -0.264,0.506 -0.616,0.506 l -2.156,0 c -0.14666,0 -0.264,-0.044 -0.352,-0.132 -0.088,-0.10266 -0.12466,-0.22733 -0.11,-0.374 l 0.374,-2.244 c 0.044,-0.36666 0.24934,-0.54999 0.616,-0.55"
         style="font-size:22px;fill:#ffffff"
         id="path3007" />
      <path
         d="m 219.06121,432.36218 1.848,-11.682 3.608,0 -1.848,11.682 -3.608,0 m 2.992,-16.126 2.75,0 c 0.27866,2e-5 0.41799,0.13202 0.418,0.396 -1e-5,0.044 -0.007,0.0953 -0.022,0.154 l -0.33,2.222 c -0.044,0.33735 -0.24201,0.50602 -0.594,0.506 l -2.728,0 c -0.16134,2e-5 -0.28601,-0.044 -0.374,-0.132 -0.0733,-0.10265 -0.0953,-0.22732 -0.066,-0.374 l 0.33,-2.222 c 0.044,-0.36665 0.24933,-0.54998 0.616,-0.55"
         style="font-size:22px;fill:#ffffff"
         id="path3009" />
      <path
         d="m 231.41043,420.52618 c 1.96532,10e-6 3.28532,0.52068 3.96,1.562 0.43998,0.68935 0.65998,1.63534 0.66,2.838 -2e-5,0.64534 -0.066,1.39334 -0.198,2.244 -0.13202,0.83601 -0.30802,1.55467 -0.528,2.156 -0.20535,0.60134 -0.46202,1.11467 -0.77,1.54 -0.30801,0.41067 -0.69668,0.73334 -1.166,0.968 -0.88001,0.42534 -2.14134,0.638 -3.784,0.638 -1.96534,0 -3.30001,-0.49866 -4.004,-1.496 -0.45467,-0.67466 -0.68201,-1.60599 -0.682,-2.794 -1e-5,-0.57199 0.066,-1.26866 0.198,-2.09 0.13199,-0.83599 0.30799,-1.58399 0.528,-2.244 0.23466,-0.65999 0.51333,-1.20999 0.836,-1.65 0.32266,-0.43999 0.72599,-0.78465 1.21,-1.034 0.87999,-0.42532 2.12666,-0.63799 3.74,-0.638 m -0.616,2.772 c -0.66001,10e-6 -1.12201,0.19801 -1.386,0.594 -0.26401,0.39601 -0.48401,1.14401 -0.66,2.244 -0.17601,1.10001 -0.26401,1.77467 -0.264,2.024 -1e-5,0.23467 0.007,0.43267 0.022,0.594 0.0147,0.16134 0.0513,0.30801 0.11,0.44 0.0587,0.13201 0.16132,0.23467 0.308,0.308 0.20532,0.11734 0.53532,0.17601 0.99,0.176 0.45466,10e-6 0.78466,-0.022 0.99,-0.066 0.20532,-0.044 0.39599,-0.16866 0.572,-0.374 0.19065,-0.21999 0.33732,-0.52066 0.44,-0.902 0.10265,-0.38133 0.21999,-0.94599 0.352,-1.694 0.13199,-0.76266 0.19799,-1.28332 0.198,-1.562 -1e-5,-0.83599 -0.11735,-1.34199 -0.352,-1.518 -0.22001,-0.17599 -0.66001,-0.26399 -1.32,-0.264"
         style="font-size:22px;fill:#ffffff"
         id="path3011" />
    </g>
  </g>
</svg>
