<?xml version="1.0" encoding="UTF-8" standalone="no"?>
<!-- Created with Inkscape (http://www.inkscape.org/) -->

<svg
   xmlns:dc="http://purl.org/dc/elements/1.1/"
   xmlns:cc="http://creativecommons.org/ns#"
   xmlns:rdf="http://www.w3.org/1999/02/22-rdf-syntax-ns#"
   xmlns:svg="http://www.w3.org/2000/svg"
   xmlns="http://www.w3.org/2000/svg"
   xmlns:sodipodi="http://sodipodi.sourceforge.net/DTD/sodipodi-0.dtd"
   xmlns:inkscape="http://www.inkscape.org/namespaces/inkscape"
   width="177.12785"
   height="116.31448"
   id="svg3847"
   version="1.1"
   inkscape:version="0.48.2 r9819"
   sodipodi:docname="oculus-white.svg">
  <defs
     id="defs3849">
    <clipPath
       id="clipPath4716"
       clipPathUnits="userSpaceOnUse">
      <path
         id="path4718"
         d="m 361.51,284.4 210.89,0 0,77.04 -210.89,0 0,-77.04 z"
         inkscape:connector-curvature="0" />
    </clipPath>
    <clipPath
       id="clipPath4730"
       clipPathUnits="userSpaceOnUse">
      <path
         id="path4732"
         d="m 348.48,268.74 227.52,0 0,111.42 -227.52,0 0,-111.42 z"
         inkscape:connector-curvature="0" />
    </clipPath>
    <clipPath
       id="clipPath5052"
       clipPathUnits="userSpaceOnUse">
      <path
         id="path5054"
         d="m 348.48,268.74 227.52,0 0,111.42 -227.52,0 0,-111.42 z"
         inkscape:connector-curvature="0" />
    </clipPath>
    <clipPath
       id="clipPath4716-8"
       clipPathUnits="userSpaceOnUse">
      <path
         id="path4718-1"
         d="m 361.51,284.4 210.89,0 0,77.04 -210.89,0 0,-77.04 z"
         inkscape:connector-curvature="0" />
    </clipPath>
    <clipPath
       id="clipPath4730-7"
       clipPathUnits="userSpaceOnUse">
      <path
         id="path4732-0"
         d="m 348.48,268.74 227.52,0 0,111.42 -227.52,0 0,-111.42 z"
         inkscape:connector-curvature="0" />
    </clipPath>
    <clipPath
       id="clipPath5052-4"
       clipPathUnits="userSpaceOnUse">
      <path
         id="path5054-6"
         d="m 348.48,268.74 227.52,0 0,111.42 -227.52,0 0,-111.42 z"
         inkscape:connector-curvature="0" />
    </clipPath>
  </defs>
  <sodipodi:namedview
     id="base"
     pagecolor="#ffffff"
     bordercolor="#666666"
     borderopacity="1.0"
     inkscape:pageopacity="0.0"
     inkscape:pageshadow="2"
     inkscape:zoom="1.4"
     inkscape:cx="-125.21887"
     inkscape:cy="-49.241542"
     inkscape:document-units="px"
     inkscape:current-layer="layer1"
     showgrid="false"
     fit-margin-top="10"
     fit-margin-left="10"
     fit-margin-right="10"
     fit-margin-bottom="10"
     inkscape:window-width="1440"
     inkscape:window-height="795"
     inkscape:window-x="127"
     inkscape:window-y="21"
     inkscape:window-maximized="0" />
  <metadata
     id="metadata3852">
    <rdf:RDF>
      <cc:Work
         rdf:about="">
        <dc:format>image/svg+xml</dc:format>
        <dc:type
           rdf:resource="http://purl.org/dc/dcmitype/StillImage" />
        <dc:title />
      </cc:Work>
    </rdf:RDF>
  </metadata>
  <g
     inkscape:label="Layer 1"
     inkscape:groupmode="layer"
     id="layer1"
     transform="translate(-374.40848,-522.78338)"
     style="display:inline" />
  <g
     inkscape:groupmode="layer"
     id="layer3"
     inkscape:label="Layer"
     style="display:inline">
    <g
       id="g8082"
       transform="translate(2.8571429,-21.428571)">
      <path
         id="path4724"
         style="fill:#ffffff;fill-opacity:1;fill-rule:nonzero;stroke:none"
         d="m 8.884898,43.310373 -0.4601098,0 0,56.238912 0.4601098,0 -0.4601098,-0.0091 -4.601e-4,0.04266 c 0.00138,0.246461 0.026226,1.512725 0.6156269,2.918585 0.2953904,0.7021 0.7343351,1.44107 1.391832,2.09429 0.656577,0.65323 1.535386,1.21739 2.678759,1.55954 1.108864,0.33262 5.859498,1.84907 12.343824,3.93093 9.729021,3.12321 23.377256,7.5247 34.593352,11.14539 5.607818,1.81014 10.60737,3.42518 14.204968,4.58748 3.597598,1.16271 5.793702,1.87268 5.793702,1.87268 l 0.155517,-0.38978 -0.225454,0.36078 c 0.04923,0.0249 0.886632,0.43825 2.324015,0.43825 0.79737,4.1e-4 1.777404,-0.128 2.897311,-0.51612 1.495817,-0.51777 2.243035,-0.77666 2.617104,-0.90631 l 0.373609,-0.12924 0.02116,-0.007 0.01978,-0.009 c 0.05107,-0.024 1.294749,-0.58902 2.05255,-2.06074 0.09662,-0.1893 0.29493,-0.6263 0.582959,-1.27414 2.006538,-4.51581 8.170169,-18.94305 8.171089,-18.94388 l -0.430203,-0.14871 0.158738,0.38854 3.450823,-1.1391 -0.15874,-0.38854 -0.009,0.4138 c 0.003,0 0.0474,8.3e-4 0.13113,8.3e-4 0.78219,-4.1e-4 4.96182,-0.0704 9.76169,-1.55125 2.39947,-0.74103 4.95584,-1.835815 7.3139,-3.457897 2.35669,-1.621252 4.51506,-3.772291 6.10428,-6.610104 l -0.22913,-0.103969 0.18128,0.16693 c 0,-0.0012 0.0152,-0.0087 0.0478,-0.06296 l -0.22913,-0.103969 0.18128,0.16693 c 0,-0.0012 0.0488,-0.03728 0.12239,-0.08036 0.29447,-0.175214 0.97589,-0.497476 1.90715,-0.904654 3.27184,-1.432783 9.72902,-3.991413 15.68606,-6.41625 2.97876,-1.212833 5.83512,-2.392528 8.11266,-3.384583 1.13877,-0.496234 2.13261,-0.945247 2.92906,-1.329642 0.79783,-0.386466 1.38953,-0.700858 1.75946,-0.958503 1.57771,-1.104721 2.75928,-2.16595 3.63947,-3.239605 0.87973,-1.072827 1.45302,-2.158495 1.81191,-3.290141 l -0.44309,-0.11391 -0.11088,0.401792 c 0.0198,0.0033 0.62713,0.14332 1.28876,0.144977 0.16702,0 0.33818,-0.0091 0.50889,-0.0348 0.27882,-0.04184 0.50566,-0.164859 0.68004,-0.302379 0.26226,-0.208353 0.42882,-0.454813 0.54247,-0.651153 0.11226,-0.196754 0.1684,-0.345458 0.17346,-0.359542 l 0.023,-0.06379 0,-1.30976 -0.45965,0 0.18405,0.379424 c 0.0212,-0.0091 0.39431,-0.154504 0.79185,-0.436587 0.19784,-0.141662 0.40489,-0.318534 0.57191,-0.543041 0.1661,-0.223263 0.29309,-0.504104 0.29217,-0.823881 l 0,-19.908188 c 0.002,-0.302794 -0.15873,-0.559195 -0.34508,-0.729025 -0.28343,-0.258058 -0.62713,-0.391437 -0.90365,-0.482565 -0.27699,-0.08864 -0.49048,-0.12468 -0.50659,-0.127579 l -0.0847,0.407177 0.45965,0 0,-1.258811 -9.2e-4,-0.01574 c -0.006,-0.04266 -0.0354,-0.403449 -0.34508,-0.791572 -0.15414,-0.192612 -0.38327,-0.387295 -0.69845,-0.527301 -0.31517,-0.14042 -0.70948,-0.224506 -1.18616,-0.224092 -0.14723,0 -0.30183,0.0079 -0.46517,0.02403 l 0.0506,0.411733 0.45413,-0.06876 c -0.0129,-0.07497 -0.17668,-0.793229 -1.21331,-1.834161 -1.03663,-1.042175 -2.93826,-2.409511 -6.43279,-3.824897 l -0.18865,0.377353 0.46011,0 0,-0.995368 -0.57514,-0.724883 0,-3.878746 -0.34048,-0.08243 c -0.0235,-0.0054 -5.92069,-1.430298 -17.42527,-2.428151 -0.21165,-0.01864 -0.4072,-0.02734 -0.58802,-0.02734 -0.4141,0 -0.75228,0.04515 -1.03387,0.127994 -0.421,0.120952 -0.71455,0.342559 -0.87191,0.57825 -0.15966,0.235276 -0.18726,0.459782 -0.18726,0.594404 0,0.07249 0.008,0.12178 0.0115,0.140834 l 0.45413,-0.07 -0.46057,0 0,2.61455 0.46057,0 0.0672,-0.409663 c -0.0138,-0.0017 -1.76958,-0.236933 -3.8778,-0.237347 -0.4118,4.14e-4 -0.74584,0.03728 -1.02927,0.115153 -0.21257,0.05882 -0.39661,0.142905 -0.54891,0.253916 -0.23051,0.166516 -0.3667,0.392679 -0.42698,0.599374 -0.0616,0.208767 -0.0658,0.401379 -0.0667,0.569551 0,0.08036 0.001,0.154918 0.001,0.222436 l 0.35566,0 -0.28941,-0.186399 c -0.04,0.04722 -0.0681,0.125509 -0.0662,0.186399 l 0.35566,0 -0.28941,-0.186399 0.23926,0.153676 -0.1546,-0.226578 c -0.0175,0.0099 -0.0511,0.03065 -0.0847,0.0729 l 0.23926,0.153676 -0.1546,-0.226578 0.0819,0.120123 -0.0667,-0.127579 -0.0152,0.0075 0.0819,0.120123 -0.0667,-0.127579 0.0248,0.04681 -0.0221,-0.04805 -0.003,0.0012 0.0248,0.04681 -0.0221,-0.04805 c 0,4.15e-4 -0.0267,0.0087 -0.075,0.01615 -0.14862,0.02485 -0.46149,0.03852 -0.88709,0.03769 -0.80796,0 -2.04335,-0.03852 -3.68778,-0.03852 -3.17016,0 -7.87018,0.143734 -14.10651,0.982113 l 0.0396,0.23859 0,-0.241489 -0.0396,0.0029 0.0396,0.23859 0,-0.241489 0,0.203796 0.12837,-0.172315 c -0.0106,-0.0079 -0.0626,-0.03189 -0.12837,-0.03148 l 0,0.203796 0.12837,-0.172315 -0.0359,0.04888 0.0414,-0.04556 -0.006,-0.0033 -0.0359,0.04888 0.0414,-0.04556 -0.0433,-0.04432 c -0.1003,-0.114739 -0.26962,-0.411734 -0.48725,-0.763406 -0.33128,-0.529786 -0.80473,-1.206619 -1.58186,-1.753802 -0.77575,-0.54884 -1.86022,-0.950218 -3.31923,-0.947733 -0.72099,0 -1.53447,0.09568 -2.45745,0.31025 l 0.11503,0.400964 0.45597,-0.05841 -0.10583,-0.666478 -1.0196,-0.612216 -2.091199,0.376525 0,1.067856 -0.843842,0.231135 0,-0.200068 0,-0.199239 -1.094601,-0.788673 -2.202545,0.283326 0,1.089809 0.245699,0.38978 -1.242297,0.421261 0,-0.765477 -0.895833,-0.690917 -2.171719,0.651981 0,2.024288 0.46011,0 -0.132511,-0.396408 c -9.21e-4,0 -0.210271,0.05675 -0.592162,0.159474 -2.671397,0.720327 -13.761422,3.691933 -19.938856,5.082052 -0.409037,0.09237 -1.347661,0.257644 -2.403153,0.395579 -1.057332,0.138763 -2.244875,0.251845 -3.160954,0.251431 -0.09432,0 -0.184504,-0.0012 -0.271925,-0.0037 -1.313613,-0.03562 -12.883993,-0.327647 -21.309983,-0.327647 -2.43306,0 -4.603398,0.02444 -6.196298,0.08657 l 0.01978,0.413805 0.07822,-0.408006 -20.446357,-3.183272 -0.04877,0.0017 c -0.0014,0 -0.96209,0.0348 -2.107763,0.09527 -1.147974,0.0613 -2.468949,0.146219 -3.236412,0.254744 -0.391093,0.05551 -0.778045,0.141663 -1.144753,0.284154 -0.5493709,0.211252 -1.0554917,0.562095 -1.3991936,1.09271 -0.3455425,0.529786 -0.5286662,1.216561 -0.5286662,2.095533 l 0.4601098,0 0.4601098,0 c 0,-0.518188 0.072237,-0.928679 0.1909455,-1.251355 0.1812832,-0.484222 0.4518278,-0.776246 0.8005907,-0.990812 0.349684,-0.212908 0.79645,-0.340488 1.303951,-0.412148 0.689245,-0.09858 2.014361,-0.186398 3.147611,-0.245631 0.567776,-0.03024 1.09092,-0.05385 1.471891,-0.07 0.380971,-0.01615 0.617928,-0.02485 0.618848,-0.02485 l -0.01886,-0.413804 -0.07822,0.408005 20.447277,3.183687 0.04923,-0.0021 c 1.568054,-0.06131 3.73103,-0.08574 6.156728,-0.08574 8.404365,0 19.975205,0.29161 21.281457,0.327233 0.098,0.0029 0.198307,0.0041 0.300451,0.0041 0.995678,-4.14e-4 2.208987,-0.118466 3.293466,-0.260129 1.085399,-0.142491 2.028164,-0.30735 2.494255,-0.411734 7.103174,-1.598884 20.569206,-5.251052 20.572887,-5.252295 l 0.326678,-0.08864 0,-1.735163 1.04905,-0.314392 0.178523,0.137521 0,1.581488 3.492693,-1.183838 -0.655657,-1.042589 0,-0.152847 1.018683,-0.130893 0.438025,0.315635 0,1.119219 2.68428,-0.735238 0,-1.002824 0.976811,-0.175629 0.36119,0.216222 0.0479,0.299895 0.0727,0.45854 0.49784,-0.115981 c 0.85948,-0.200482 1.5952,-0.284154 2.22647,-0.284154 0.98509,0.0012 1.71207,0.200067 2.28214,0.489606 0.85397,0.433688 1.37067,1.092296 1.74658,1.67883 0.1891,0.293266 0.33772,0.563751 0.4914,0.788672 0.0787,0.113082 0.15597,0.216637 0.2664,0.314392 0.0552,0.04846 0.12101,0.09651 0.20567,0.135864 0.0847,0.03935 0.19232,0.06793 0.30551,0.06752 l 0.0962,-0.0066 c 6.18572,-0.831337 10.83191,-0.973 13.97078,-0.973 1.62971,0 2.85084,0.03811 3.68778,0.03852 0.4279,-8.29e-4 0.75136,-0.0087 1.01224,-0.04515 0.13251,-0.02071 0.25076,-0.04225 0.38695,-0.10894 0.0676,-0.03397 0.14355,-0.08367 0.20889,-0.164859 0.0653,-0.07953 0.10721,-0.194269 0.10537,-0.295338 0,-0.0787 -0.001,-0.152847 -0.001,-0.222436 -9.2e-4,-0.12965 0.007,-0.241489 0.0267,-0.322262 0.0157,-0.0613 0.0354,-0.103969 0.0603,-0.137935 0.0382,-0.04888 0.0897,-0.09858 0.24938,-0.153675 0.15781,-0.05302 0.42238,-0.0961 0.81531,-0.09568 1.01638,0 1.95593,0.05716 2.63919,0.114739 0.3414,0.02858 0.61885,0.05716 0.81025,0.0787 0.0953,0.01077 0.16978,0.01947 0.21993,0.02568 0.0497,0.0062 0.0732,0.0095 0.0736,0.0095 l 0.52775,0.07042 0,-3.130253 -0.007,-0.03479 -0.18221,0.02817 0.18405,-0.01574 -0.002,-0.01243 -0.18221,0.02817 0.18405,-0.01574 0,-0.01326 c -4.6e-4,-0.0203 0.003,-0.05882 0.0184,-0.09858 0.0258,-0.06048 0.0607,-0.12758 0.20797,-0.208767 0.14862,-0.07912 0.43573,-0.164859 0.94599,-0.164859 0.14769,0 0.31425,0.007 0.50014,0.0232 5.72514,0.497063 10.04971,1.099337 12.9392,1.576932 1.44567,0.23859 2.53245,0.446113 3.2562,0.593575 0.36119,0.07373 0.63311,0.13255 0.81301,0.17273 0.0897,0.01988 0.15736,0.03521 0.20153,0.04556 0.0442,0.01036 0.0644,0.01533 0.0644,0.01533 l 0.11917,-0.400136 -0.46011,0 0,3.82614 0.57513,0.724883 0,0.998268 0.27147,0.109768 c 3.40711,1.380591 5.19602,2.68828 6.12406,3.622344 0.46471,0.467239 0.71547,0.841278 0.8489,1.088567 0.0667,0.123437 0.10399,0.215394 0.12331,0.272142 l 0.0189,0.05716 0.001,0.0079 0.21258,-0.03894 -0.2135,0.03231 9.2e-4,0.0066 0.21258,-0.03894 -0.2135,0.03231 0.0727,0.386052 0.43158,-0.04308 c 0.13252,-0.01326 0.25353,-0.01905 0.36395,-0.01905 0.35935,4.14e-4 0.60367,0.0613 0.77805,0.138349 0.25812,0.115981 0.38097,0.274213 0.45643,0.415876 0.0363,0.07 0.0571,0.133792 0.0676,0.176457 l 0.01,0.04598 0.001,0.007 0.19693,-0.01905 -0.19785,0.01367 9.2e-4,0.0054 0.19693,-0.01905 -0.19785,0.01367 0.45873,-0.03189 -0.46011,0 0,1.586459 0.37545,0.06338 c 0.0189,0.0025 0.33542,0.06338 0.60597,0.183085 0.13481,0.05841 0.2549,0.131721 0.31977,0.195925 0.0658,0.0671 0.0768,0.09983 0.0791,0.145805 l 0,19.908188 c 0,0.120538 -0.046,0.237762 -0.13803,0.364099 -0.13711,0.188469 -0.38327,0.371554 -0.59584,0.494163 -0.10629,0.06213 -0.20291,0.110596 -0.27055,0.142077 l -0.0787,0.03521 -0.0184,0.0079 -0.004,0.0017 0.0479,0.09734 -0.0469,-0.09776 -9.2e-4,4.14e-4 0.0479,0.09734 -0.0469,-0.09776 -0.27607,0.108525 0,1.513556 0.46011,0 -0.43618,-0.130893 0.10905,0.03272 -0.10859,-0.03355 -4.6e-4,8.28e-4 0.10905,0.03272 -0.10859,-0.03355 c -0.003,0.0079 -0.0856,0.216222 -0.22545,0.408005 -0.069,0.0961 -0.15092,0.186813 -0.2319,0.248117 -0.0819,0.06213 -0.15322,0.09279 -0.21763,0.102727 -0.10583,0.01574 -0.22914,0.0232 -0.35751,0.0232 -0.25582,4.14e-4 -0.52912,-0.02982 -0.73341,-0.06048 -0.10215,-0.01574 -0.18773,-0.03107 -0.24662,-0.04225 l -0.0663,-0.01326 -0.0193,-0.0041 -0.43204,-0.09734 -0.12193,0.385224 c -0.33174,1.043003 -0.85075,2.028015 -1.6679,3.026283 -0.8167,0.997439 -1.93522,2.007304 -3.46325,3.077232 -0.16564,0.115981 -0.44124,0.277941 -0.80013,0.465996 -1.35042,0.7108 -3.87228,1.815936 -6.8791,3.073504 -4.51367,1.88801 -10.13668,4.12852 -14.67428,5.972622 -2.26926,0.922466 -4.26706,1.745518 -5.72422,2.377616 -0.72836,0.316464 -1.32144,0.584878 -1.7521,0.797786 -0.21625,0.106869 -0.39063,0.198825 -0.52867,0.282083 -0.0695,0.04184 -0.13021,0.08119 -0.1868,0.125094 -0.0575,0.04763 -0.11365,0.08574 -0.18083,0.197168 -1.52296,2.718105 -3.58103,4.768902 -5.84201,6.325123 -3.39009,2.333708 -7.24489,3.548198 -10.39296,4.174078 -3.14807,0.62672 -5.58435,0.66524 -6.12314,0.66483 l -0.086,0 -0.0262,-4.2e-4 -0.0865,-0.002 -3.728266,1.23065 -0.075,0.17563 c -4.6e-4,8.3e-4 -0.12515,0.29409 -0.347383,0.81228 -0.775285,1.81262 -2.722009,6.36323 -4.551406,10.60732 -0.914698,2.12204 -1.799489,4.16745 -2.493335,5.75516 -0.346922,0.79405 -0.645994,1.47337 -0.876969,1.99032 -0.229594,0.51487 -0.395234,0.87483 -0.46103,1.00282 -0.313334,0.6118 -0.730194,1.03265 -1.066534,1.30023 -0.16748,0.1338 -0.314715,0.22865 -0.416859,0.28871 -0.05107,0.0298 -0.09064,0.051 -0.115488,0.0638 l -0.02669,0.0133 -0.0051,0.002 0.07684,0.13338 -0.075,-0.13421 -0.0018,8.3e-4 0.07684,0.13338 -0.075,-0.13421 0.205669,0.37073 -0.164719,-0.38688 -2.990714,1.03554 c -1.016382,0.35168 -1.879088,0.46103 -2.567412,0.46103 -0.619768,0 -1.099202,-0.0891 -1.418979,-0.17521 -0.159658,-0.0427 -0.279746,-0.0853 -0.356585,-0.11516 l -0.08236,-0.0344 -0.0161,-0.007 -0.0018,-8.3e-4 -0.117328,0.19385 0.120089,-0.19261 -0.0028,-0.001 -0.117328,0.19385 0.120089,-0.19261 -0.03359,-0.017 -0.03635,-0.012 c 0,0 -15.615204,-5.04809 -31.791283,-10.26476 -8.087809,-2.60834 -16.315952,-5.25893 -22.803039,-7.3412 -6.488468,-2.08311 -11.227598,-3.59584 -12.361769,-3.93633 -0.990616,-0.29823 -1.724951,-0.77251 -2.287665,-1.33005 -0.842921,-0.8359 -1.2924487,-1.87269 -1.5234238,-2.74503 -0.2318953,-0.87152 -0.2456986,-1.571961 -0.2456986,-1.711553 l 4.602e-4,-0.02071 0,-0.0041 0,-0.0046 0,-56.243054 -0.4601098,0 z"
         inkscape:connector-curvature="0" />
      <path
         id="path4738"
         style="fill:#ffffff;fill-opacity:1;fill-rule:nonzero;stroke:none"
         d="m 10.050954,41.023719 -0.04187,-0.08616 0.03451,0.08906 0.0074,-0.0029 -0.04187,-0.08616 0.03451,0.08906 c 0.0064,-0.0025 0.186805,-0.05592 0.71087,-0.05551 0.513942,0 1.358244,0.05012 2.695783,0.240247 1.448425,0.205867 18.727387,2.976991 35.701756,5.707936 8.488104,1.36568 16.901671,2.721418 23.2268,3.742468 3.162794,0.510732 5.803364,0.937377 7.67003,1.239757 0.933102,0.15119 1.672959,0.271313 2.187821,0.354986 0.512103,0.08326 0.809794,0.13255 0.831419,0.136692 0.102144,0.01905 0.398455,0.104797 0.763322,0.284154 0.550751,0.269242 1.271743,0.75015 1.854702,1.548764 0.582959,0.799029 1.033407,1.918248 1.033867,3.487309 4.6e-4,4.266455 -2.223711,63.563548 -2.300549,65.300778 -0.03681,0.87401 -0.06073,1.87227 -0.404896,2.69657 -0.171161,0.41256 -0.4187,0.77997 -0.784027,1.07987 -0.366248,0.29948 -0.853964,0.53558 -1.526185,0.67186 l 0.100765,0.40386 c 0.737095,-0.14829 1.306251,-0.41753 1.735073,-0.7692 0.644614,-0.52854 0.96301,-1.22982 1.128189,-1.94849 0.16518,-0.71991 0.182204,-1.46716 0.211191,-2.11831 0.07638,-1.74801 2.300089,-61.022731 2.300549,-65.316938 0.0018,-2.187904 -0.849823,-3.604947 -1.780165,-4.471493 -0.464711,-0.433687 -0.946446,-0.73151 -1.348582,-0.928678 -0.404436,-0.197169 -0.721452,-0.292439 -0.887551,-0.325162 -0.04555,-0.0087 -0.327599,-0.05468 -0.845222,-0.139178 C 74.591971,50.5901 16.263398,41.191888 13.522064,40.802108 12.167501,40.60991 11.301574,40.55689 10.754504,40.55689 c -0.637252,8.29e-4 -0.8424611,0.07042 -0.888012,0.0874 l 0.184504,0.379424 z"
         inkscape:connector-curvature="0" />
      <path
         id="path4744"
         style="fill:#ffffff;fill-opacity:1;fill-rule:nonzero;stroke:none"
         d="m 15.808169,40.227673 c 1.448425,0.205867 18.727847,2.976991 35.701756,5.707936 8.488105,1.36568 16.902132,2.721418 23.22726,3.742468 3.162335,0.510732 5.802905,0.937377 7.67003,1.239757 0.932642,0.15119 1.672959,0.270899 2.187822,0.354985 0.511642,0.08326 0.809333,0.13255 0.830958,0.136693 0.102144,0.01905 0.398455,0.104797 0.763782,0.284154 0.550291,0.269242 1.271283,0.75015 1.854242,1.548764 0.58342,0.799028 1.033407,1.917834 1.034327,3.487309 0,4.266454 -2.22417,63.563541 -2.300549,65.300781 -0.03681,0.85412 -0.208889,2.02843 -0.706268,3.03912 -0.50152,1.01318 -1.301651,1.84825 -2.622166,2.11666 l 0.100764,0.40386 c 1.497198,-0.30113 2.413276,-1.26958 2.941942,-2.35317 0.532807,-1.08609 0.705809,-2.30182 0.745838,-3.19032 0.07592,-1.748 2.299629,-61.022724 2.300549,-65.316931 0.0018,-2.188318 -0.849823,-3.604947 -1.780165,-4.471493 C 87.29312,51.824559 86.811385,51.526321 86.40971,51.329567 86.005273,51.132399 85.687797,51.037129 85.522158,51.004406 85.476607,50.995707 85.1941,50.949314 84.676476,50.865228 76.949853,49.606417 18.62128,40.208205 15.879946,39.818425 l -0.07178,0.409248 z"
         inkscape:connector-curvature="0" />
      <path
         id="path4750"
         style="fill:#ffffff;fill-opacity:1;fill-rule:nonzero;stroke:none"
         d="m 37.219929,43.28175 c 0.0023,4.14e-4 0.760101,0.116396 2.093039,0.320191 4.665053,0.714114 16.34816,2.503539 27.025927,4.145917 5.339113,0.821396 10.426547,1.605927 14.259721,2.201159 1.916357,0.297409 3.51938,0.548012 4.682997,0.731511 1.161777,0.183499 1.893812,0.301965 2.041047,0.331375 0.79507,0.156574 1.655935,0.284568 2.503457,0.63334 0.847062,0.349187 1.687223,0.913353 2.452385,1.969611 0.900895,1.245556 2.881207,4.172013 4.726708,6.942723 1.84458,2.769467 3.56217,5.393958 3.92796,6.019843 0.38143,0.649495 0.68924,1.0633 0.89951,1.607169 0.21119,0.544284 0.3391,1.241828 0.3391,2.472887 4.6e-4,1.646106 -0.26916,8.134016 -0.58112,14.319546 -0.15597,3.093387 -0.32253,6.113457 -0.47115,8.418585 -0.0745,1.153185 -0.14447,2.127014 -0.20659,2.840713 -0.0308,0.357057 -0.0598,0.649495 -0.086,0.864475 -0.0129,0.107697 -0.0253,0.19634 -0.0368,0.262615 -0.0106,0.06586 -0.0225,0.113496 -0.0258,0.120123 -0.27975,0.785773 -0.939088,2.427323 -1.527108,3.866737 -0.29401,0.72074 -0.570076,1.39094 -0.772984,1.88179 -0.202909,0.49085 -0.33174,0.79986 -0.3322,0.80069 l 0.430663,0.14539 c 9.2e-4,-0.002 2.069569,-4.967728 2.640109,-6.56827 0.018,-0.05261 0.029,-0.107283 0.0423,-0.183913 0.0966,-0.573279 0.22822,-2.310513 0.37591,-4.673218 0.44217,-7.082314 1.01086,-19.672911 1.01086,-22.095263 4.6e-4,-1.254255 -0.13067,-2.006476 -0.36487,-2.609579 -0.23557,-0.603931 -0.56041,-1.035962 -0.92666,-1.663917 -0.38189,-0.651567 -2.092115,-3.264459 -3.940836,-6.039312 -1.847341,-2.773609 -3.825813,-5.69758 -4.73499,-6.955563 -0.807032,-1.118391 -1.730933,-1.745104 -2.647471,-2.120801 -0.916079,-0.376111 -1.819274,-0.507004 -2.59594,-0.661093 -0.198307,-0.03894 -1.111625,-0.18557 -2.585356,-0.417533 C 74.53805,48.570497 37.297227,42.87333 37.297227,42.87333 l -0.0773,0.40842 z"
         inkscape:connector-curvature="0" />
      <path
         id="path4756"
         style="fill:#ffffff;fill-opacity:1;fill-rule:nonzero;stroke:none"
         d="m 9.287494,100.68855 0.2249937,0.0431 C 11.11597,93.992702 15.153433,84.165773 18.885383,75.835003 c 3.731951,-8.332841 7.156087,-15.170766 7.541659,-15.968138 0.255361,-0.529786 0.370389,-0.931164 0.371309,-1.270823 0.0028,-0.353743 -0.138953,-0.634584 -0.340481,-0.852877 C 26.256342,57.522801 26.007882,57.349657 25.756202,57.145033 19.811124,52.327667 15.706025,48.796037 13.088461,46.46937 11.779448,45.306243 10.842205,44.444254 10.232559,43.87346 9.9279668,43.588063 9.7052737,43.375155 9.5584986,43.23432 9.4121837,43.093072 9.3431673,43.024725 9.3427072,43.024311 l -0.1702406,0.139178 -0.1440144,0.161545 c 4.601e-4,4.14e-4 0.2502997,0.181428 0.6933854,0.502862 3.1020604,2.247552 15.6492524,11.342141 17.8048674,12.940612 0.37775,0.280012 0.645073,0.553396 0.817155,0.830509 0.17162,0.277941 0.25214,0.560024 0.25306,0.879386 4.6e-4,0.420018 -0.146315,0.908797 -0.443546,1.496573 -0.679122,1.345383 -5.445399,11.49706 -10.046496,21.321503 C 13.5067,91.11968 9.0753834,100.60819 9.0753834,100.60819 l 0.2121106,0.0804 0.2249937,0.0431 -0.2249937,-0.0431 0.2121106,0.0799 c 9.202e-4,-0.002 0.2769861,-0.59274 0.7642424,-1.635746 1.705627,-3.650511 5.987868,-12.813861 9.991743,-21.356297 4.002955,-8.541193 7.730304,-16.468929 8.316944,-17.630398 0.311494,-0.618015 0.483575,-1.160642 0.484036,-1.667646 9.2e-4,-0.384395 -0.102145,-0.746008 -0.311035,-1.081111 C 28.536646,57.061361 28.227452,56.751525 27.818874,56.448731 25.349005,54.617055 9.3174011,43.002772 9.3164809,43.002358 L 9.002226,43.303081 c 0.00598,0.0058 4.545884,4.507115 16.446163,14.149717 0.266403,0.214979 0.500599,0.382738 0.652896,0.552153 0.151836,0.171487 0.234195,0.329304 0.236956,0.591091 9.2e-4,0.25143 -0.09064,0.604759 -0.333579,1.10555 -0.381431,0.790744 -3.81109,7.639439 -7.54626,15.978493 -3.735632,8.341954 -7.778616,18.173025 -9.3959017,24.964975 l 0.4371043,0.12343 -0.2121106,-0.0799 z"
         inkscape:connector-curvature="0" />
      <path
         id="path4762"
         style="fill:#ffffff;fill-opacity:1;fill-rule:nonzero;stroke:none"
         d="m 85.416563,56.056468 -0.07454,-0.195926 c -0.0014,4.15e-4 -20.20618,6.244764 -23.699793,7.388008 -0.581579,0.190541 -1.018223,0.441972 -1.312233,0.767134 -0.29447,0.324747 -0.431123,0.719912 -0.429742,1.148629 4.6e-4,0.445285 0.138953,0.93075 0.38097,1.463849 0.233736,0.51446 1.793968,4.301249 4.005256,9.718404 3.318311,8.128217 8.110815,19.944224 12.137695,29.993174 2.0139,5.02406 3.836395,9.60656 5.187277,13.06529 0.675441,1.72937 1.233094,3.17748 1.637991,4.25859 0.403976,1.07862 0.657497,1.80226 0.715471,2.04334 0.01334,0.0534 0.023,0.0936 0.02991,0.12136 l 0.0087,0.0327 0.0041,0.0141 0.0051,0.0141 0.01058,0.0228 0.02392,0.0352 0.04371,0.0389 c 0.02347,0.0157 0.06718,0.041 0.138953,0.0422 0.05889,8.3e-4 0.115948,-0.0236 0.146775,-0.0476 0.05429,-0.0435 0.06166,-0.0733 0.0704,-0.0907 0.01702,-0.051 0.01104,-0.0567 0.01288,-0.0692 l -0.0028,-0.034 c -0.0046,-0.0257 -0.01334,-0.0638 -0.03129,-0.14207 -0.54201,-2.34531 -8.432432,-34.726458 -19.963242,-58.693991 -0.271925,-0.560853 -0.433884,-1.017322 -0.431583,-1.332128 0.0014,-0.188056 0.04877,-0.317706 0.149536,-0.428717 0.100764,-0.110596 0.273765,-0.211666 0.558573,-0.28871 1.782465,-0.481323 5.469785,-1.531367 9.469519,-3.020484 4.000194,-1.489946 8.311422,-3.414821 11.353668,-5.664444 l 0.985095,-0.728611 -1.205488,0.372797 0.07454,0.195926 -0.145855,-0.159888 c -2.97783,2.20323 -7.260072,4.121477 -11.23818,5.601481 -3.978109,1.481247 -7.652546,2.527978 -9.425349,3.006815 -0.339561,0.09154 -0.602743,0.226992 -0.781266,0.421261 -0.179903,0.194269 -0.256281,0.437829 -0.254901,0.692574 0.0028,0.431202 0.192326,0.916666 0.469312,1.496987 5.960722,12.388044 10.953833,27.051392 14.454348,38.628392 1.750718,5.78871 3.128286,10.80573 4.06829,14.38251 0.470232,1.78777 0.830498,3.216 1.073436,4.19977 0.121929,0.49209 0.213951,0.87317 0.275606,1.13247 0.03083,0.12965 0.05383,0.22906 0.06948,0.29617 l 0.01702,0.0762 0.0037,0.0174 0,8.3e-4 0.207049,-0.0286 -0.20935,0 0.0023,0.0286 0.207049,-0.0286 -0.20935,0 0.229135,0 -0.224994,-0.0389 -0.0041,0.0389 0.229135,0 -0.224994,-0.0389 0.225914,0.0389 -0.202448,-0.0982 -0.02347,0.0592 0.225914,0.0389 -0.202448,-0.0982 0.202448,0.0982 -0.146315,-0.15948 -0.05613,0.0613 0.202448,0.0982 -0.146315,-0.15948 0.146315,0.15989 0,-0.20711 c -0.05889,-8.3e-4 -0.115948,0.0232 -0.146315,0.0472 l 0.146315,0.15989 0,-0.20711 0,0.2067 0.138953,-0.16486 c -0.02347,-0.0157 -0.06718,-0.041 -0.138953,-0.0418 l 0,0.2067 0.138953,-0.16486 -0.138493,0.16486 0.198307,-0.10438 c -0.0092,-0.0108 -0.0138,-0.0265 -0.05981,-0.0605 l -0.138493,0.16486 0.198307,-0.10438 -0.196466,0.10314 0.21303,-0.0717 -0.01656,-0.0315 -0.196466,0.10314 0.21303,-0.0717 -0.17024,0.0576 0.175762,-0.0418 -0.0055,-0.0157 -0.17024,0.0576 0.175762,-0.0418 c -0.0014,-0.005 -0.01564,-0.0592 -0.03635,-0.14581 -0.04831,-0.19551 -0.174842,-0.57038 -0.37545,-1.12667 -1.500417,-4.15503 -7.106855,-18.16019 -12.45287,-31.379984 -2.672778,-6.60969 -5.279759,-13.021384 -7.274795,-17.904197 -1.995956,-4.884883 -3.375825,-8.231771 -3.6045,-8.735461 -0.228675,-0.502862 -0.346923,-0.941106 -0.346463,-1.307275 0.0014,-0.354572 0.103985,-0.638312 0.327138,-0.887257 0.223614,-0.248531 0.582039,-0.465582 1.112086,-0.63914 1.738754,-0.569137 7.664508,-2.416553 13.151777,-4.120235 2.744094,-0.852048 5.379143,-1.668474 7.328168,-2.271576 0.974052,-0.301966 1.777404,-0.550083 2.336437,-0.723227 0.559493,-0.173143 0.874209,-0.27007 0.875129,-0.270484 l -0.07454,-0.195926 -0.145855,-0.159888 0.145855,0.159888 z"
         inkscape:connector-curvature="0" />
      <path
         id="path4768"
         style="fill:#ffffff;fill-opacity:1;fill-rule:nonzero;stroke:none"
         d="m 45.629355,44.535715 c 0,0 17.023141,0.456883 18.346876,0.492092 0.203829,0.0054 0.408578,0.0079 0.613327,0.0079 1.777404,-4.14e-4 3.541924,-0.196754 4.853237,-0.479665 0.372229,-0.08077 1.868966,-0.458126 3.927497,-0.983356 3.084576,-0.787844 7.414209,-1.904993 10.999844,-2.829943 1.793048,-0.462683 3.399751,-0.876902 4.57165,-1.178453 0.58572,-0.150361 1.062854,-0.272556 1.400114,-0.358714 0.168861,-0.04266 0.302292,-0.07663 0.396615,-0.09983 0.04693,-0.01201 0.08466,-0.02112 0.110886,-0.02775 l 0.03129,-0.007 0.0078,-0.0021 9.2e-4,0 -0.02255,-0.0903 0.02024,0.09071 0.0023,-4.14e-4 -0.02255,-0.0903 0.02024,0.09071 0.03221,-0.0037 0,-0.01988 -0.0037,0.01905 0.0037,8.28e-4 0,-0.01988 -0.0037,0.01905 0.02071,-0.10314 -0.100764,0.04846 0.08006,0.05468 0.02071,-0.10314 -0.100764,0.04846 0.06856,-0.03314 -0.07408,0.02154 0.0055,0.0116 0.06856,-0.03314 -0.07408,0.02154 0.0184,-0.0054 -0.01932,0.0037 9.2e-4,0.0017 0.0184,-0.0054 -0.01932,0.0037 0.0018,0.02817 c 0.0014,0.05758 -0.01978,0.179357 -0.04463,0.329718 l 4.6e-4,0 c -0.05981,0.375697 -0.116407,1.046731 -0.116867,1.048802 l -0.0037,0.04184 0.01472,0.03977 0.122849,-0.03687 -0.130671,0 0.0078,0.03687 0.122849,-0.03687 -0.130671,0 0.05521,0 -0.05107,-0.02071 -0.0041,0.02071 0.05521,0 -0.05107,-0.02071 0.006,0.0025 -0.0055,-0.0033 -4.6e-4,8.28e-4 0.006,0.0025 -0.0055,-0.0033 c -0.0014,0.0017 -0.01518,0.01988 -0.0704,0.04556 -0.05429,0.02527 -0.148616,0.05633 -0.295391,0.07994 -0.09064,0.01491 -0.435264,0.08201 -0.997058,0.195926 -1.960527,0.39765 -6.495369,1.357809 -11.041253,2.508095 -2.272943,0.575764 -4.548645,1.198335 -6.508713,1.823391 -1.961448,0.626299 -3.603119,1.250113 -4.628704,1.845345 l 0.24984,0.347944 c 1.100122,-0.640796 3.065251,-1.361537 5.384664,-2.068609 3.482111,-1.062057 7.773554,-2.10506 11.251984,-2.891248 1.738755,-0.393093 3.275061,-0.721983 4.405551,-0.957674 1.128189,-0.235276 1.860684,-0.378596 1.965589,-0.395579 0.272845,-0.04515 0.448607,-0.113081 0.570996,-0.207109 0.123309,-0.09196 0.171621,-0.221607 0.1684,-0.304451 0,-0.04556 -0.0097,-0.07787 -0.01564,-0.09403 l -0.218552,0.06545 0.229595,0.01574 c 0,-4.14e-4 0.01426,-0.16693 0.03589,-0.37901 0.02117,-0.211666 0.04969,-0.46931 0.0773,-0.643282 l 0,0 c 0.02255,-0.145391 0.04831,-0.268 0.04969,-0.388123 -0.0018,-0.07166 -0.006,-0.152847 -0.07224,-0.242318 -0.03267,-0.04308 -0.08466,-0.08201 -0.139874,-0.103141 -0.05521,-0.02154 -0.109966,-0.02817 -0.160118,-0.02817 -0.04187,0 -0.0819,0.0046 -0.122849,0.0116 -0.02715,0.0054 -0.04877,0.01118 -0.098,0.02278 -0.71501,0.175629 -5.705821,1.466749 -10.698011,2.752898 -2.495176,0.643282 -4.989431,1.284493 -6.947198,1.784041 -1.955466,0.499134 -3.382266,0.858262 -3.717686,0.93075 -1.268063,0.273799 -3.007278,0.468482 -4.746032,0.468067 -0.200148,0 -0.400296,-0.0025 -0.599984,-0.0079 -0.661637,-0.0174 -5.248471,-0.14042 -9.669206,-0.259301 -2.210827,-0.05923 -4.380245,-0.117224 -5.99661,-0.160717 -1.616826,-0.04349 -2.677839,-0.07166 -2.6806,-0.07166 l -0.0138,0.413805 z"
         inkscape:connector-curvature="0" />
      <path
         id="path4774"
         style="fill:#ffffff;fill-opacity:1;fill-rule:nonzero;stroke:none"
         d="m 56.026593,46.163927 0.03543,-0.005 c 0.172542,-0.0232 0.971292,-0.120537 2.252238,-0.120537 2.425238,0 6.576348,0.348772 11.474677,2.209029 L 69.96746,47.865923 C 65.001954,45.980014 60.787809,45.6242 58.314259,45.6242 c -1.493056,0 -2.353002,0.12965 -2.363584,0.131307 l 0.07592,0.40842 z"
         inkscape:connector-curvature="0" />
      <path
         id="path4780"
         style="fill:#ffffff;fill-opacity:1;fill-rule:nonzero;stroke:none"
         d="m 101.4818,36.432641 -0.23005,0 0,1.190051 0.79138,1.365265 5.97315,-0.755949 -0.10905,-0.245632 c -0.007,-0.0145 -0.26686,-0.596889 -0.88387,-1.187151 -0.61424,-0.589434 -1.60578,-1.188394 -3.02982,-1.187566 -0.22407,0 -0.45873,0.01491 -0.70351,0.04639 -1.4475,0.18557 -1.93246,0.592747 -1.97065,0.62837 l -0.0676,0.06048 0,0.08574 0.23005,0 0.16288,0.146633 -0.0478,-0.04308 0.0456,0.04474 0.002,-0.0017 -0.0478,-0.04308 0.0456,0.04474 c 0.0152,-0.0116 0.42744,-0.347115 1.71253,-0.512803 0.22407,-0.029 0.4371,-0.04225 0.63863,-0.04225 1.27588,0.0012 2.13445,0.524815 2.69486,1.057501 0.27883,0.265928 0.47898,0.533928 0.60781,0.733581 0.0644,0.09983 0.11134,0.182671 0.14171,0.239833 l 0.0331,0.06462 0.009,0.01947 0.21349,-0.07705 -0.0318,-0.205453 -5.36073,0.678905 -0.58895,-1.016493 0,-1.088153 -0.23005,0 0.16288,0.146633 -0.16288,-0.146633 z"
         inkscape:connector-curvature="0" />
      <path
         id="path4786"
         style="fill:#ffffff;fill-opacity:1;fill-rule:nonzero;stroke:none"
         d="m 128.18653,66.924618 c -0.002,-0.01201 -0.24754,-2.077308 -1.32926,-4.440426 -1.08079,-2.36022 -3.00497,-5.036074 -6.38954,-6.20707 l -0.0828,0.19344 0.0207,0.206281 c 4.6e-4,0 0.21303,-0.0174 0.5756,-0.04308 1.08678,-0.07787 3.518,-0.233205 5.5273,-0.233205 0.98095,-4.14e-4 1.86528,0.03811 2.42156,0.135449 l 0.0433,-0.203381 -0.21809,0.06545 0.27698,0.748493 0.14816,0.01326 c 9.2e-4,0 0.25122,0.02278 0.69614,0.06545 1.55655,0.149119 5.48221,0.540555 9.26201,1.037204 1.88967,0.248117 3.743,0.523158 5.24295,0.806484 0.74952,0.141663 1.41116,0.285397 1.94121,0.427888 0.52958,0.141663 0.93172,0.28664 1.14199,0.409663 l 0.24892,-0.348359 c -0.32484,-0.186398 -0.83372,-0.351671 -1.5018,-0.521087 -2.32908,-0.586534 -6.56439,-1.155256 -10.23146,-1.582316 -3.66478,-0.425817 -6.75211,-0.706657 -6.75349,-0.707072 l -0.0235,0.206281 0.21855,-0.06545 -0.27284,-0.736481 -0.13205,-0.02278 c -0.61655,-0.106455 -1.51238,-0.142492 -2.50852,-0.142906 -2.71143,0 -6.14062,0.277527 -6.14385,0.277941 l -0.98785,0.07994 0.92574,0.319777 c 3.21065,1.107207 5.07271,3.669565 6.12912,5.978007 0.52775,1.152357 0.85304,2.237196 1.04537,3.032082 0.0962,0.39765 0.1592,0.722812 0.19831,0.947733 0.0198,0.112668 0.0331,0.200068 0.0414,0.258887 0.009,0.05923 0.012,0.08823 0.012,0.08823 l 0.45781,-0.04432 z"
         inkscape:connector-curvature="0" />
      <path
         id="path4792"
         style="fill:#ffffff;fill-opacity:1;fill-rule:nonzero;stroke:none"
         d="m 136.02868,34.525412 -0.0341,0.412976 c 4.6e-4,0 0.14954,0.01036 0.42376,0.03065 0.95933,0.07166 3.4292,0.2709 6.17007,0.60186 2.73858,0.329719 5.75736,0.796129 7.7731,1.385148 l 0.14171,-0.393922 -0.46011,0 0,1.061229 0.46011,0 0.12147,-0.399307 c -0.0198,-0.005 -5.73021,-1.408344 -14.5183,-2.084349 l -0.0396,0.412976 0.46011,-0.01408 -0.0382,-1.026848 -0.46011,0.01367 -0.0341,0.412976 0.0341,-0.412976 -0.45965,0.01367 0.052,1.394675 0.40674,0.03148 c 4.35724,0.335103 7.95116,0.850805 10.45277,1.282007 1.25104,0.215808 2.22877,0.410077 2.89271,0.550497 0.3322,0.07042 0.58526,0.126751 0.7555,0.165688 0.0847,0.01947 0.14862,0.03479 0.19141,0.04474 0.0423,0.0099 0.0621,0.01491 0.0621,0.01491 l 0.58112,0.142906 0,-1.905407 -0.31793,-0.09279 c -2.4303,-0.707072 -6.05735,-1.213661 -9.09867,-1.552907 -3.03811,-0.338002 -5.47899,-0.502033 -5.48359,-0.502447 l -0.51118,-0.03438 0.017,0.461025 0.45965,-0.01367 z"
         inkscape:connector-curvature="0" />
      <path
         id="path4798"
         style="fill:#ffffff;fill-opacity:1;fill-rule:nonzero;stroke:none"
         d="m 92.222046,86.320127 -0.230055,0 c 0,0.07166 -0.06395,0.129236 -0.143554,0.129651 -0.07914,-4.15e-4 -0.143554,-0.0584 -0.144014,-0.129651 l 0,-6.368615 c 4.6e-4,-0.07125 0.06488,-0.129237 0.144014,-0.129237 0.0796,0 0.143554,0.05758 0.143554,0.129237 l 0,6.368615 0.230055,0 0.230055,0 0,-6.368615 c 0,-0.300309 -0.270085,-0.543455 -0.603664,-0.543455 -0.33358,0 -0.603664,0.243146 -0.604124,0.543455 l 0,6.368615 c 4.6e-4,0.300309 0.270544,0.543455 0.604124,0.543869 0.333579,-4.14e-4 0.603664,-0.24356 0.603664,-0.543869 l -0.230055,0 z"
         inkscape:connector-curvature="0" />
      <path
         id="path4804"
         style="fill:#ffffff;fill-opacity:1;fill-rule:nonzero;stroke:none"
         d="m 94.29254,86.009463 -0.230055,0 c 0,0.07166 -0.06395,0.129236 -0.143554,0.129651 -0.0796,-4.15e-4 -0.143554,-0.05799 -0.144014,-0.129651 l 0,-6.368615 c 4.6e-4,-0.07166 0.06441,-0.129237 0.144014,-0.129237 0.0796,0 0.143554,0.05758 0.143554,0.129237 l 0,6.368615 0.230055,0 0.230055,0 0,-6.368615 c 0,-0.300309 -0.270085,-0.543455 -0.603664,-0.543455 -0.33358,0 -0.603664,0.243146 -0.604124,0.543455 l 0,6.368615 c 4.6e-4,0.300309 0.270544,0.543455 0.604124,0.543869 0.333579,-4.14e-4 0.603664,-0.24356 0.603664,-0.543869 l -0.230055,0 z"
         inkscape:connector-curvature="0" />
      <path
         id="path4810"
         style="fill:#ffffff;fill-opacity:1;fill-rule:nonzero;stroke:none"
         d="m 91.915153,100.67944 -0.230055,0 c 0,0.0717 -0.06395,0.12924 -0.143554,0.12965 -0.0796,-4.1e-4 -0.143554,-0.058 -0.144014,-0.12965 l 0,-6.368615 c 4.6e-4,-0.07125 0.06488,-0.129237 0.144014,-0.129237 0.0796,0 0.143554,0.05799 0.143554,0.129237 l 0,6.368615 0.230055,0 0.230055,0 0,-6.368615 c 0,-0.299895 -0.269624,-0.543455 -0.603664,-0.543455 -0.33358,0 -0.603664,0.243146 -0.604124,0.543455 l 0,6.368615 c 4.6e-4,0.30031 0.270544,0.54346 0.604124,0.54387 0.333579,-8.3e-4 0.603204,-0.24356 0.603664,-0.54387 l -0.230055,0 z"
         inkscape:connector-curvature="0" />
      <path
         id="path4816"
         style="fill:#ffffff;fill-opacity:1;fill-rule:nonzero;stroke:none"
         d="m 93.985647,100.36878 -0.230055,0 c 0,0.0717 -0.06395,0.12924 -0.143554,0.12965 -0.0796,-4.1e-4 -0.143554,-0.058 -0.144014,-0.12965 l 0,-6.368615 c 4.6e-4,-0.07125 0.06441,-0.129237 0.144014,-0.129237 0.0796,0 0.143554,0.05799 0.143554,0.129237 l 0,6.368615 0.230055,0 0.230055,0 0,-6.368615 c 0,-0.299895 -0.270085,-0.543455 -0.603664,-0.543455 -0.33358,0 -0.603664,0.24356 -0.604124,0.543455 l 0,6.368615 c 9.2e-4,0.30031 0.270544,0.54304 0.604124,0.54387 0.333579,-8.3e-4 0.603204,-0.24356 0.603664,-0.54387 l -0.230055,0 z"
         inkscape:connector-curvature="0" />
      <path
         id="path4822"
         style="fill:#ffffff;fill-opacity:1;fill-rule:nonzero;stroke:none"
         d="m 107.17888,87.459644 0.0497,0.105212 -0.0267,-0.11184 -0.023,0.0066 0.0497,0.105212 -0.0267,-0.11184 10e-4,0.0046 -9.2e-4,-0.005 -4.6e-4,4.14e-4 0.001,0.0046 -9.2e-4,-0.005 -0.0451,0.0017 c -0.11594,8.29e-4 -0.35612,-0.02402 -0.56317,-0.05219 -0.10444,-0.01367 -0.20291,-0.02858 -0.27883,-0.04059 l -0.0934,-0.01615 -0.0276,-0.0054 -0.007,-0.0017 -0.008,0.02858 0.01,-0.02817 -0.001,-4.14e-4 -0.008,0.02858 0.01,-0.02817 c -0.47529,-0.131307 -0.85764,-0.436172 -1.13049,-0.878558 -0.27146,-0.441557 -0.42514,-1.018564 -0.42468,-1.661432 0,-0.47221 0.0824,-0.980042 0.2572,-1.494502 0.24156,-0.711214 0.62069,-1.436925 1.15948,-1.972096 0.54155,-0.535585 1.22435,-0.884357 2.13261,-0.886014 0.1845,0 0.37867,0.0145 0.58342,0.04598 l 0.0778,-0.408005 c -0.22914,-0.03521 -0.44953,-0.05219 -0.66118,-0.05219 -1.04767,-0.0021 -1.87265,0.420846 -2.47355,1.022292 -0.60366,0.601446 -1.00258,1.378521 -1.2584,2.128671 -0.18819,0.552982 -0.27745,1.100165 -0.27745,1.615868 0,0.701272 0.16518,1.344554 0.4822,1.8615 0.31609,0.516116 0.79277,0.908382 1.39827,1.074898 l 0.0759,0.01615 c 0.20061,0.03604 0.73433,0.115567 1.02742,0.117224 l 0.0925,-0.0037 c 0.0317,-0.0037 0.0626,-0.0066 0.10996,-0.02402 l -0.18082,-0.381081 z"
         inkscape:connector-curvature="0" />
      <path
         id="path4828"
         style="fill:#ffffff;fill-opacity:1;fill-rule:nonzero;stroke:none"
         d="m 110.79074,84.718757 -0.21993,-0.06048 c -0.28435,0.837551 -0.76701,1.542551 -1.3288,2.031329 -0.56225,0.490021 -1.19767,0.758849 -1.78615,0.757607 -0.16886,0 -0.33496,-0.02154 -0.49783,-0.06627 -0.47392,-0.130893 -0.85719,-0.441143 -1.13095,-0.891399 -0.27239,-0.449428 -0.42653,-1.035962 -0.42607,-1.685457 -4.6e-4,-0.476352 0.0819,-0.986255 0.25675,-1.499886 0.2848,-0.837965 0.76746,-1.542552 1.32925,-2.03133 0.56226,-0.490021 1.19767,-0.758849 1.78569,-0.757606 0.16932,0 0.33542,0.02154 0.4983,0.06628 0.47391,0.130893 0.85672,0.441143 1.13049,0.891399 0.27238,0.449013 0.42652,1.035547 0.42652,1.685456 0,0.476352 -0.0824,0.985841 -0.2572,1.499887 l 0.21993,0.06048 0.21993,0.06089 c 0.18773,-0.552568 0.27699,-1.102236 0.27745,-1.621253 -4.6e-4,-0.7079 -0.16564,-1.35988 -0.48266,-1.883867 -0.31563,-0.523158 -0.79231,-0.922051 -1.39965,-1.088981 -0.20751,-0.05716 -0.42008,-0.0845 -0.63311,-0.0845 -0.74492,8.28e-4 -1.48155,0.330961 -2.10592,0.874002 -0.62437,0.544283 -1.14246,1.307275 -1.44889,2.207786 -0.18772,0.552154 -0.27699,1.101823 -0.27699,1.621253 0,0.7079 0.16518,1.359466 0.4822,1.883868 0.3161,0.523158 0.79231,0.922051 1.40011,1.088981 0.20751,0.05716 0.42008,0.08492 0.63265,0.0845 0.74538,-8.29e-4 1.48202,-0.330961 2.10593,-0.874002 0.62483,-0.544698 1.14245,-1.307689 1.44888,-2.207787 l -0.21993,-0.06089 z"
         inkscape:connector-curvature="0" />
      <path
         id="path4834"
         style="fill:#ffffff;fill-opacity:1;fill-rule:nonzero;stroke:none"
         d="m 110.81467,84.853793 -0.23512,-0.06462 c -0.43848,1.291949 -1.17236,2.382587 -2.02494,3.142264 -0.8535,0.761749 -1.81835,1.185495 -2.71511,1.184252 -0.24754,0 -0.49139,-0.03189 -0.72973,-0.09734 -0.70949,-0.195926 -1.28049,-0.667721 -1.68354,-1.347869 -0.40214,-0.678904 -0.62621,-1.562433 -0.62575,-2.542475 0,-0.750565 0.13067,-1.557049 0.40766,-2.370575 0.43894,-1.291948 1.17282,-2.382173 2.0254,-3.142264 0.85304,-0.761334 1.81835,-1.18508 2.71511,-1.183838 0.24754,0 0.49139,0.03148 0.72973,0.09734 0.70949,0.195925 1.28049,0.667721 1.68354,1.347868 0.40168,0.678905 0.62575,1.562434 0.62529,2.542475 0,0.750565 -0.13067,1.556635 -0.40766,2.370161 l 0.23512,0.06462 0.23466,0.06503 c 0.29079,-0.854533 0.42882,-1.703268 0.42882,-2.499811 -4.6e-4,-1.039689 -0.23466,-1.99115 -0.6828,-2.750413 -0.44677,-0.757606 -1.11715,-1.327157 -1.97296,-1.562434 -0.28618,-0.07912 -0.57927,-0.116809 -0.87374,-0.116809 -1.07114,0.0012 -2.14319,0.494163 -3.06065,1.311831 -0.91792,0.819325 -1.68769,1.970025 -2.14964,3.326592 -0.29079,0.854948 -0.42882,1.703682 -0.42882,2.500225 4.6e-4,1.039689 0.23512,1.99115 0.68326,2.750413 0.44677,0.757607 1.11715,1.326743 1.97341,1.562434 0.28573,0.07912 0.57882,0.11681 0.87329,0.11681 1.07068,-0.0012 2.14319,-0.494578 3.06065,-1.312246 0.91792,-0.818911 1.68769,-1.970025 2.14918,-3.326592 l -0.23466,-0.06503 z"
         inkscape:connector-curvature="0" />
      <path
         id="path4840"
         style="fill:#ffffff;fill-opacity:1;fill-rule:nonzero;stroke:none"
         d="m 105.82013,82.644763 c 4.6e-4,4.14e-4 1.12773,0.550497 2.30009,1.108036 0.58618,0.278769 1.1834,0.559195 1.65823,0.774589 0.23742,0.107697 0.44401,0.198825 0.60505,0.266343 0.0805,0.03355 0.14953,0.06089 0.20751,0.08243 0.0603,0.02112 0.0994,0.03604 0.1592,0.04681 l 0.081,-0.408006 -0.0129,0.06338 0.0166,-0.06255 -0.004,-8.29e-4 -0.0129,0.06338 0.0166,-0.06255 c 0,4.14e-4 -0.0382,-0.01077 -0.0874,-0.02982 -0.19279,-0.07207 -0.59309,-0.24936 -1.07252,-0.470553 -0.72099,-0.332203 -1.63063,-0.766305 -2.35898,-1.116734 -0.72882,-0.350843 -1.27497,-0.6176 -1.27635,-0.618014 l -0.21947,0.364098 z"
         inkscape:connector-curvature="0" />
      <path
         id="path4846"
         style="fill:#ffffff;fill-opacity:1;fill-rule:nonzero;stroke:none"
         d="m 105.24499,83.663328 c 4.6e-4,0 1.12773,0.550083 2.30009,1.107621 0.58618,0.27877 1.1834,0.55961 1.65823,0.775004 0.23742,0.107697 0.44401,0.198825 0.60505,0.265928 0.0805,0.03355 0.14953,0.06131 0.20751,0.08243 0.0603,0.02154 0.0994,0.03604 0.1592,0.04681 l 0.081,-0.407592 -0.0129,0.06296 0.0166,-0.06255 -0.004,-4.14e-4 -0.0129,0.06296 0.0166,-0.06255 c 0,4.15e-4 -0.0382,-0.01077 -0.0874,-0.02941 -0.19279,-0.07207 -0.59309,-0.249774 -1.07252,-0.470553 -0.72099,-0.332203 -1.63063,-0.766305 -2.35898,-1.117148 -0.72882,-0.350429 -1.27497,-0.617186 -1.27635,-0.618015 l -0.21947,0.364513 z"
         inkscape:connector-curvature="0" />
      <path
         id="path4852"
         style="fill:#ffffff;fill-opacity:1;fill-rule:nonzero;stroke:none"
         d="m 92.25522,53.428456 c 0,0 4.874403,0.441557 9.97196,0.889328 2.54901,0.223678 5.15323,0.448599 7.23292,0.620914 2.082,0.171901 3.62705,0.290782 4.09268,0.302794 2.66588,0.06545 5.7845,1.009451 6.9656,1.466749 l 0.19371,-0.406349 c -1.23448,-0.474694 -4.36644,-1.429055 -7.14505,-1.501957 -0.42606,-0.01077 -1.98721,-0.129651 -4.06185,-0.301552 -3.11678,-0.258058 -7.41742,-0.635411 -10.938184,-0.948147 -1.76084,-0.156574 -3.326134,-0.296995 -4.451562,-0.398064 -1.125889,-0.101484 -1.809152,-0.163202 -1.810992,-0.163616 l -0.04923,0.4399 z"
         inkscape:connector-curvature="0" />
      <path
         id="path4858"
         style="fill:#ffffff;fill-opacity:1;fill-rule:nonzero;stroke:none"
         d="m 115.74194,68.849452 c 0.0179,0.0058 0.91424,0.304865 2.2688,0.305279 0.5075,0 1.07988,-0.04225 1.69274,-0.158646 2.20025,-0.417118 8.10024,-1.831261 8.10254,-1.831675 l 0.0124,-0.0029 0.012,-0.0046 c 4.6e-4,0 5.05247,-1.769129 10.61612,-3.791346 2.78182,-1.011108 5.69155,-2.085178 8.16234,-3.033739 2.47171,-0.948561 4.49988,-1.768714 5.53834,-2.281932 2.04611,-1.011936 3.65742,-1.891737 4.89879,-2.932669 1.24138,-1.040104 2.10408,-2.246309 2.63045,-3.870047 l 4.6e-4,-0.0012 4.6e-4,-4.14e-4 c 0,0 0.006,-0.02071 0.0207,-0.06131 0.0492,-0.142077 0.18911,-0.509489 0.39754,-0.848734 0.10398,-0.169416 0.22499,-0.331375 0.35382,-0.453156 0.12883,-0.122608 0.26135,-0.200481 0.38328,-0.226163 l -0.10813,-0.403035 c -0.27791,0.06172 -0.49784,0.224921 -0.67912,0.414219 -0.27147,0.286225 -0.46793,0.647838 -0.60367,0.941519 -0.13481,0.293682 -0.20567,0.518602 -0.20751,0.523987 l 9.2e-4,-0.0017 c -0.50888,1.560363 -1.31407,2.684139 -2.50299,3.68282 -1.18847,0.997854 -2.76894,1.865642 -4.80631,2.873023 -1.0035,0.496234 -3.03258,1.318044 -5.49739,2.26412 -3.69974,1.419528 -8.39194,3.124867 -12.15794,4.475221 -1.88323,0.674762 -3.53502,1.261296 -4.71613,1.678415 -1.1811,0.417532 -1.88921,0.665649 -1.89105,0.666064 l 0.0833,0.193026 -0.0589,-0.200068 c -9.2e-4,4.14e-4 -0.36855,0.08864 -0.95611,0.227406 -1.7613,0.417119 -5.49555,1.29112 -7.12296,1.599713 -0.57836,0.109768 -1.11852,0.149533 -1.59796,0.149533 -0.63955,0 -1.17098,-0.07124 -1.54045,-0.141662 -0.1845,-0.03521 -0.32851,-0.07042 -0.4256,-0.09651 -0.0488,-0.01284 -0.0851,-0.02361 -0.10904,-0.03065 l -0.0267,-0.0083 -0.006,-0.0021 -0.16058,0.388123 z"
         inkscape:connector-curvature="0" />
      <path
         id="path4864"
         style="fill:#ffffff;fill-opacity:1;fill-rule:nonzero;stroke:none"
         d="m 115.79029,69.681079 c 0.0147,0.0041 1.03847,0.301551 2.46205,0.301966 0.53418,0 1.12451,-0.04184 1.73875,-0.158646 2.20025,-0.416704 8.10023,-1.831262 8.10253,-1.831676 l 0.0124,-0.0029 0.012,-0.0041 c 4.6e-4,-4.14e-4 5.05247,-1.769543 10.61611,-3.79176 2.78183,-1.011108 5.69156,-2.085177 8.16235,-3.033324 2.47171,-0.948976 4.49987,-1.768715 5.53834,-2.281932 2.04749,-1.01318 4.00066,-2.086006 5.55307,-3.42559 1.55195,-1.338756 2.70222,-2.953381 3.11356,-5.021162 l -0.45321,-0.07332 c -0.39385,1.970853 -1.47741,3.497664 -2.97875,4.795412 -1.50088,1.296505 -3.42,2.354834 -5.45598,3.361386 -1.0035,0.496648 -3.03259,1.318459 -5.49739,2.26412 -3.69975,1.419943 -8.39194,3.125282 -12.15794,4.475221 -1.88323,0.674763 -3.53503,1.261297 -4.71613,1.678829 -1.1811,0.417119 -1.88921,0.665236 -1.89105,0.666064 l 0.0833,0.193026 -0.0589,-0.200068 c -9.2e-4,0 -0.36855,0.08823 -0.95611,0.227407 -1.7613,0.416704 -5.49555,1.29112 -7.12296,1.599299 -0.5779,0.109353 -1.13693,0.149533 -1.64397,0.149533 -0.6759,0 -1.25978,-0.07125 -1.67296,-0.142077 -0.20659,-0.03562 -0.37039,-0.07125 -0.48174,-0.09734 -0.0552,-0.01326 -0.098,-0.02403 -0.12607,-0.03148 l -0.04,-0.01077 -0.14125,0.393922 z"
         inkscape:connector-curvature="0" />
      <path
         id="path4870"
         style="fill:#ffffff;fill-opacity:1;fill-rule:nonzero;stroke:none"
         d="m 115.0757,93.154739 c 0.041,0.03438 0.54201,0.399307 1.8478,0.398064 0.9354,0 2.28445,-0.183499 4.19068,-0.798614 3.85986,-1.244727 4.96044,-1.764986 4.97563,-1.772028 l -0.21395,-0.366584 -0.0106,0.005 c -0.12055,0.05509 -1.29935,0.580735 -4.90615,1.743861 -1.86896,0.602689 -3.16739,0.774175 -4.03562,0.774175 -0.60642,0 -1.00304,-0.08326 -1.2423,-0.160716 -0.11962,-0.03894 -0.20014,-0.07663 -0.24799,-0.102313 l -0.0483,-0.02858 -0.008,-0.005 -0.0502,0.05633 0.0529,-0.05426 -0.003,-0.0021 -0.0502,0.05633 0.0529,-0.05426 -0.30413,0.310664 z"
         inkscape:connector-curvature="0" />
      <path
         id="path4876"
         style="fill:#ffffff;fill-opacity:1;fill-rule:nonzero;stroke:none"
         d="m 120.40377,92.701169 c -1.12957,2.337023 -2.82277,3.643055 -4.23623,4.372909 -0.70627,0.364512 -1.3426,0.58322 -1.79995,0.710385 -0.22867,0.06379 -0.41226,0.104383 -0.53787,0.129236 -0.063,0.01243 -0.11088,0.02071 -0.14263,0.02568 l -0.0451,0.007 0.0658,0.409662 c 0.0198,-0.0025 1.20641,-0.158646 2.68888,-0.922465 1.4811,-0.762991 3.25804,-2.140683 4.42902,-4.567178 l -0.42192,-0.165273 z"
         inkscape:connector-curvature="0" />
      <path
         id="path4882"
         style="fill:#ffffff;fill-opacity:1;fill-rule:nonzero;stroke:none"
         d="m 120.17555,93.258294 -0.005,0.03272 c -0.0304,0.176043 -0.20475,1.032234 -0.81762,2.052455 -0.61332,1.020635 -1.65961,2.204473 -3.44668,3.056521 -1.93338,0.921223 -3.77934,1.436097 -5.13988,1.71984 -0.68005,0.14208 -1.23908,0.22616 -1.62649,0.27463 -0.19371,0.0244 -0.34508,0.0398 -0.44677,0.0489 -0.10214,0.01 -0.1523,0.0124 -0.1523,0.0124 l 0.0308,0.41339 c 0.0193,-0.002 3.59392,-0.21871 7.54948,-2.103405 2.00516,-0.955189 3.13611,-2.317969 3.76002,-3.438431 0.62483,-1.120876 0.7486,-2.001091 0.75136,-2.017246 l -0.45689,-0.05178 z"
         inkscape:connector-curvature="0" />
      <path
         id="path4888"
         style="fill:#ffffff;fill-opacity:1;fill-rule:nonzero;stroke:none"
         d="m 94.132422,56.020348 c 4.6e-4,0 15.719188,1.622495 19.864318,2.002334 2.04335,0.187227 3.71125,0.252674 5.09249,0.461854 1.38355,0.210009 2.46941,0.55671 3.40574,1.299819 1.90531,1.512727 3.32751,3.954962 4.1258,7.292323 l 0.44953,-0.08699 c -0.8121,-3.393695 -2.26558,-5.922087 -4.2712,-7.516001 -1.01914,-0.810627 -2.21037,-1.183009 -3.63349,-1.397575 -1.42496,-0.214979 -3.09331,-0.279183 -5.1224,-0.465582 -2.06773,-0.189298 -7.0337,-0.690088 -11.48112,-1.143244 -2.22371,-0.226163 -4.318127,-0.441143 -5.856734,-0.59896 -1.538147,-0.158232 -2.518181,-0.259301 -2.520942,-0.259301 l -0.05199,0.411319 z"
         inkscape:connector-curvature="0" />
      <path
         id="path4894"
         style="fill:#ffffff;fill-opacity:1;fill-rule:nonzero;stroke:none"
         d="m 94.552042,56.538121 c 9.2e-4,0 0.29171,0.03231 0.805192,0.08947 3.592537,0.398479 18.047346,2.003577 19.284116,2.153938 1.39644,0.166516 4.10234,0.72157 5.64003,2.477444 0.95933,1.086496 1.56345,2.765739 1.91222,4.167456 0.1753,0.701272 0.28894,1.332956 0.35888,1.789011 0.035,0.22782 0.0589,0.411734 0.0741,0.53807 0.0152,0.126751 0.0212,0.194269 0.0212,0.194269 l 0.45873,-0.03438 c -9.2e-4,-0.0062 -0.10628,-1.146972 -0.46425,-2.578098 -0.3598,-1.431127 -0.96347,-3.152206 -2.00055,-4.333558 -1.68309,-1.902922 -4.49758,-2.45259 -5.9391,-2.630704 -1.42404,-0.173144 -20.092994,-2.243824 -20.093915,-2.243824 l -0.05659,0.410905 z"
         inkscape:connector-curvature="0" />
      <path
         id="path4900"
         style="fill:#ffffff;fill-opacity:1;fill-rule:nonzero;stroke:none"
         d="m 122.83131,66.063872 c -0.005,-0.02361 -0.1684,-0.87773 -0.99062,-1.739719 -0.82037,-0.863232 -2.31251,-1.712795 -4.8721,-1.709482 -0.71823,0 -1.52066,0.06545 -2.41788,0.214152 l -0.37084,0.0613 0.21257,0.28084 c 0.4371,0.57535 0.78126,1.388462 0.87881,2.228498 0.23051,1.967954 0.38235,6.882661 0.38235,12.079865 0,5.084537 -0.14494,10.453228 -0.49738,13.625316 -0.30551,2.763668 -0.46333,4.516228 -0.97497,5.718292 -0.25582,0.60186 -0.59216,1.06827 -1.08632,1.483317 -0.49416,0.414633 -1.15396,0.778318 -2.05209,1.145316 -2.48413,1.015253 -4.72073,1.781143 -6.33525,2.292703 -0.8075,0.25599 -1.45901,0.4486 -1.90854,0.57659 -0.22499,0.0642 -0.39891,0.11226 -0.5167,0.14457 -0.11779,0.0319 -0.17806,0.0476 -0.17806,0.0476 l 0.13573,0.42458 c 0.008,-0.002 4.00525,-1.04011 9.00573,-3.083867 0.92574,-0.378182 1.63385,-0.762991 2.18368,-1.224017 0.82773,-0.691331 1.2722,-1.549178 1.55655,-2.723903 0.28665,-1.177624 0.42836,-2.687452 0.65842,-4.75689 0.35612,-3.20564 0.50014,-8.575573 0.50014,-13.669637 -4.7e-4,-5.209217 -0.15046,-10.116053 -0.38512,-12.126258 -0.10812,-0.916252 -0.47391,-1.78694 -0.96163,-2.431464 l -0.2029,0.124679 0.0446,0.217465 c 0.87144,-0.144562 1.64397,-0.207109 2.32907,-0.207109 2.4418,0.0029 3.76048,0.786187 4.49987,1.555806 0.36901,0.386052 0.58987,0.772518 0.71824,1.0604 0.0639,0.144149 0.1049,0.263444 0.12929,0.345459 0.0124,0.04101 0.0202,0.07249 0.0253,0.09278 l 0.005,0.02237 9.2e-4,0.005 0.48404,-0.07456 z"
         inkscape:connector-curvature="0" />
      <path
         id="path4906"
         style="fill:#ffffff;fill-opacity:1;fill-rule:nonzero;stroke:none"
         d="m 115.65594,58.781407 c 0,0 -0.0244,0.03355 -0.0732,0.09568 -0.1707,0.218293 -0.62529,0.774175 -1.19628,1.290291 -0.56778,0.518602 -1.26392,0.984184 -1.84044,1.055016 l 0.0359,0.218707 0.11456,-0.195511 c -0.008,-0.0029 -1.53998,-0.730268 -2.74823,-1.052116 -0.15874,-0.04184 -0.48404,-0.107283 -0.95427,-0.196754 C 105.71892,59.377049 95.661381,57.70319 95.66,57.702776 l -0.08926,0.43493 c 0.0023,4.14e-4 0.821296,0.136692 2.070494,0.346287 1.874027,0.314392 4.711066,0.793229 7.184616,1.221117 1.23677,0.214151 2.38291,0.415462 3.27092,0.577007 0.88571,0.160717 1.52618,0.285397 1.71299,0.335517 0.56409,0.149533 1.23309,0.405106 1.75669,0.622985 0.26181,0.10894 0.48818,0.207938 0.6483,0.280012 0.16012,0.07207 0.25306,0.115982 0.25306,0.115982 l 0.0709,0.03355 0.0796,-0.01036 c 0.44768,-0.06089 0.87558,-0.264272 1.27496,-0.523573 1.19214,-0.77956 2.16206,-2.100089 2.17126,-2.109616 l -0.40812,-0.245218 -4.6e-4,0 z"
         inkscape:connector-curvature="0" />
      <path
         id="path4912"
         style="fill:#ffffff;fill-opacity:1;fill-rule:nonzero;stroke:none"
         d="m 93.209948,54.722517 c 0.0032,4.14e-4 14.909852,1.552907 18.069892,1.761259 2.30101,0.15119 5.69478,0.306107 9.5008,1.235615 1.56346,0.377353 3.0717,1.705753 4.25602,3.434703 1.18616,1.726464 2.05255,3.841051 2.39119,5.741487 l 0.4845,-0.07 c -0.35107,-1.965054 -1.23494,-4.121892 -2.45791,-5.903861 -1.22435,-1.778656 -2.78366,-3.194456 -4.54542,-3.628972 -3.86217,-0.943176 -7.30011,-1.098508 -9.59375,-1.249698 -1.5607,-0.102726 -6.07943,-0.543041 -10.19926,-0.95726 -2.060828,-0.207109 -4.023196,-0.407591 -5.470241,-0.55671 -1.447505,-0.148705 -2.376927,-0.245218 -2.379228,-0.245632 l -0.05659,0.439072 z"
         inkscape:connector-curvature="0" />
      <path
         id="path4918"
         style="fill:#ffffff;fill-opacity:1;fill-rule:nonzero;stroke:none"
         d="m 106.59127,76.415326 0.10675,1.16934 0.45872,-0.03397 -0.1072,-1.16934"
         inkscape:connector-curvature="0" />
      <path
         id="path4924"
         style="fill:#ffffff;fill-opacity:1;fill-rule:nonzero;stroke:none"
         d="m 105.41068,76.914045 0.45137,0.945662 0.42238,-0.163203 -0.45091,-0.946075"
         inkscape:connector-curvature="0" />
      <path
         id="path4930"
         style="fill:#ffffff;fill-opacity:1;fill-rule:nonzero;stroke:none"
         d="m 104.39609,77.599577 0.6736,0.82968 0.37131,-0.244389 -0.6736,-0.82968"
         inkscape:connector-curvature="0" />
      <path
         id="path4936"
         style="fill:#ffffff;fill-opacity:1;fill-rule:nonzero;stroke:none"
         d="m 103.60838,78.420145 0.74814,0.68926 0.32898,-0.289539 -0.7486,-0.68926"
         inkscape:connector-curvature="0" />
      <path
         id="path4942"
         style="fill:#ffffff;fill-opacity:1;fill-rule:nonzero;stroke:none"
         d="m 102.93299,79.288762 0.82406,0.619671 0.29493,-0.317705 -0.82406,-0.619672"
         inkscape:connector-curvature="0" />
      <path
         id="path4948"
         style="fill:#ffffff;fill-opacity:1;fill-rule:nonzero;stroke:none"
         d="m 107.73101,76.354021 -0.12101,1.168511 0.45827,0.03852 0.12055,-1.168926"
         inkscape:connector-curvature="0" />
      <path
         id="path4954"
         style="fill:#ffffff;fill-opacity:1;fill-rule:nonzero;stroke:none"
         d="m 108.8044,76.518052 -0.32852,1.136202 0.44539,0.104384 0.32852,-1.136203"
         inkscape:connector-curvature="0" />
      <path
         id="path4960"
         style="fill:#ffffff;fill-opacity:1;fill-rule:nonzero;stroke:none"
         d="m 109.9262,76.891677 -0.58296,1.050459 0.4118,0.185156 0.58296,-1.050459"
         inkscape:connector-curvature="0" />
      <path
         id="path4966"
         style="fill:#ffffff;fill-opacity:1;fill-rule:nonzero;stroke:none"
         d="m 111.0456,77.49768 -0.8443,0.894713 0.35106,0.267999 0.8443,-0.894298"
         inkscape:connector-curvature="0" />
      <path
         id="path4972"
         style="fill:#ffffff;fill-opacity:1;fill-rule:nonzero;stroke:none"
         d="m 111.92211,78.421802 -1.10794,0.619671 0.24293,0.351672 1.10749,-0.619257"
         inkscape:connector-curvature="0" />
      <path
         id="path4978"
         style="fill:#ffffff;fill-opacity:1;fill-rule:nonzero;stroke:none"
         d="m 128.59745,36.402735 c 0.0437,0.03355 0.5006,0.342145 1.72311,0.340902 l 0.0644,-4.14e-4 0.0667,0 c 1.55011,-0.0012 5.91747,0.424574 10.13622,0.931992 2.11098,0.253502 4.1893,0.527715 5.87008,0.778318 0.84016,0.125508 1.58094,0.245217 2.17494,0.353328 0.59354,0.107697 1.04445,0.205867 1.28739,0.281255 0.85994,0.2651 1.64213,0.345459 2.27248,0.345459 0.95887,-4.15e-4 1.56805,-0.184742 1.58554,-0.190127 l -0.1477,-0.392265 -0.0202,0.0058 c -0.10813,0.02982 -0.63634,0.162374 -1.4176,0.162374 -0.5871,0 -1.3173,-0.07456 -2.12341,-0.323091 -0.28527,-0.08781 -0.7417,-0.185156 -1.3449,-0.295338 -2.10684,-0.383153 -5.9713,-0.900098 -9.66276,-1.322187 -3.6933,-0.422089 -7.19612,-0.749322 -8.61004,-0.749736 l -0.0713,0 -0.0598,4.14e-4 c -0.56961,0 -0.93862,-0.07083 -1.15902,-0.136278 -0.11042,-0.03272 -0.18358,-0.06462 -0.22637,-0.08574 l -0.0428,-0.0232 -0.006,-0.0037 -0.0603,0.07249 0.0635,-0.07 -0.003,-0.0025 -0.0603,0.07249 0.0635,-0.07 -0.29263,0.319777 z"
         inkscape:connector-curvature="0" />
      <path
         id="path4984"
         style="fill:#ffffff;fill-opacity:1;fill-rule:nonzero;stroke:none"
         d="m 133.78376,36.198815 c 4.6e-4,0 0.1753,0.0145 0.49554,0.04266 2.23521,0.197582 11.52713,1.078211 16.57223,2.383829 0.46609,0.120124 0.96025,0.153261 1.38401,0.153261 0.60597,0 1.06746,-0.06959 1.07528,-0.07042 l -0.0755,-0.408834 c -4.6e-4,0 -0.0244,0.0037 -0.0732,0.0099 -0.14677,0.01823 -0.50152,0.05551 -0.92666,0.05509 -0.39569,4.15e-4 -0.8535,-0.03272 -1.25702,-0.13752 -2.9286,-0.756364 -7.20992,-1.364437 -10.76703,-1.786112 -3.55619,-0.420847 -6.38402,-0.654052 -6.38586,-0.654466 l -0.0419,0.412562 z"
         inkscape:connector-curvature="0" />
      <path
         id="path4990"
         style="fill:#ffffff;fill-opacity:1;fill-rule:nonzero;stroke:none"
         d="m 131.27437,56.505067 0.0336,-0.220779 -0.62989,-0.07746 0,-18.545822 0.27744,0.02361 0.0713,18.821277 0.24754,-8.28e-4 0.0336,-0.220779 -0.0336,0.220779 0.24754,-8.28e-4 -0.0727,-19.22597 -1.26622,-0.106454 0,19.42438 1.3403,0.164445 -0.001,-0.256401 -0.24754,8.28e-4 z"
         inkscape:connector-curvature="0" />
      <path
         id="path4996"
         style="fill:#ffffff;fill-opacity:1;fill-rule:nonzero;stroke:none"
         d="m 149.69578,58.84619 -0.57514,-19.054068 -0.24754,0.0062 -0.0281,0.221193 0.0409,0.005 c 0.21165,0.02527 1.21791,0.162788 2.36634,0.564995 1.14982,0.401792 2.43306,1.069099 3.22445,2.129085 0.87973,1.175139 1.47879,2.303885 2.02908,3.223865 0.55352,0.916253 1.04767,1.644449 1.80778,1.978724 0.50474,0.217051 0.8696,0.288296 1.14383,0.288711 0.14539,0 0.26456,-0.02113 0.35566,-0.04846 0.0897,-0.02651 0.1569,-0.0613 0.17531,-0.06918 l -0.22132,-0.398892 c -0.0414,0.01905 -0.064,0.03107 -0.1095,0.04515 -0.0442,0.01284 -0.10583,0.02527 -0.20015,0.02568 -0.17622,0 -0.47069,-0.04722 -0.92988,-0.245217 -0.56318,-0.235277 -1.04629,-0.878973 -1.58554,-1.787769 -0.54247,-0.905068 -1.15166,-2.05494 -2.05439,-3.26156 -0.93909,-1.250941 -2.43858,-1.965468 -3.69422,-2.375959 -1.25702,-0.410077 -2.27939,-0.515288 -2.29181,-0.516945 l -0.28343,-0.029 0.58296,19.31047 0.49462,-0.01201 z"
         inkscape:connector-curvature="0" />
      <path
         id="path5002"
         style="fill:#ffffff;fill-opacity:1;fill-rule:nonzero;stroke:none"
         d="m 161.01954,45.305541 c -0.13343,0.005 -0.26318,0.03935 -0.39569,0.08947 -0.19693,0.07704 -0.39662,0.193026 -0.55996,0.342145 -0.16012,0.148705 -0.29769,0.337174 -0.30045,0.572865 -0.003,0.18557 0.10353,0.373625 0.28711,0.510732 0.18358,0.139591 0.44032,0.248117 0.79645,0.337588 l 0.0658,-0.21498 -0.24247,-0.04349 c -0.002,0.01036 -0.0893,0.404692 -0.0893,0.989984 0,0.09734 0.002,0.200067 0.008,0.306936 l 0,0 c 0.003,0.04846 0.006,0.267999 0.008,0.609316 0.006,1.029334 0.009,3.215581 0.009,5.850427 0,3.512991 -0.004,7.823766 -0.008,11.256398 -0.002,1.716109 -0.004,3.213096 -0.006,4.280538 -0.001,1.067856 -0.003,1.704511 -0.003,1.706168 l 0.49554,8.28e-4 c -4.6e-4,0 0.0166,-10.217537 0.0166,-17.243932 0,-1.756702 -9.2e-4,-3.314165 -0.004,-4.462794 -0.001,-0.574107 -0.003,-1.045903 -0.005,-1.390119 -0.002,-0.345458 -0.005,-0.555881 -0.008,-0.627955 l 0,0 c -0.006,-0.09941 -0.007,-0.195097 -0.007,-0.285811 0,-0.272556 0.0203,-0.501205 0.0405,-0.659851 0.0101,-0.07953 0.0202,-0.141249 0.0276,-0.183085 l 0.009,-0.04639 0.003,-0.01326 0.0451,-0.203382 -0.22177,-0.05509 c -0.31333,-0.07746 -0.50796,-0.16983 -0.6078,-0.247703 -0.10031,-0.08036 -0.11043,-0.125508 -0.11273,-0.171072 -4.6e-4,-0.03976 0.0179,-0.09568 0.0672,-0.161131 0.0722,-0.09776 0.20889,-0.204624 0.35199,-0.279598 0.14125,-0.07622 0.29539,-0.118467 0.35888,-0.118467 l -0.017,-0.445285 z"
         inkscape:connector-curvature="0" />
      <path
         id="path5008"
         style="fill:#ffffff;fill-opacity:1;fill-rule:nonzero;stroke:none"
         d="m 148.79535,39.984941 0.99706,-0.284568 -0.075,-0.212495 -0.0133,0.222436 0.0382,0.0025 c 0.2006,0.01408 1.16867,0.101484 2.30008,0.489193 1.13233,0.388123 2.4211,1.072827 3.29669,2.273647 0.87007,1.191708 1.38079,2.239682 1.86621,3.070605 0.24339,0.415461 0.47989,0.778317 0.76102,1.076969 0.2802,0.298237 0.61102,0.532271 1.02098,0.668135 l 0.0207,0.0066 0.0216,0.0033 c 10e-4,4.14e-4 0.13021,0.02113 0.29171,0.04184 0.16288,0.02112 0.35198,0.04266 0.50106,0.04308 l 0.0985,-0.0046 c 0.034,-0.0046 0.069,-0.0079 0.12515,-0.03148 l -0.22131,-0.398893 0.0704,0.126751 -0.0377,-0.137935 -0.0327,0.01118 0.0704,0.126751 -0.0377,-0.137935 0.012,0.04266 -0.007,-0.04349 -0.005,8.28e-4 0.012,0.04266 -0.007,-0.04349 -0.0396,0.0012 c -0.0939,8.29e-4 -0.27975,-0.01822 -0.43066,-0.03811 -0.1523,-0.01988 -0.27469,-0.03977 -0.27515,-0.03977 l -0.0437,0.219536 0.0856,-0.20918 c -0.31793,-0.10604 -0.57237,-0.281669 -0.81439,-0.538071 -0.73204,-0.765476 -1.25518,-2.267848 -2.59134,-4.10408 -1.0173,-1.392604 -2.52646,-2.130742 -3.7706,-2.523007 -1.24598,-0.392266 -2.23567,-0.441558 -2.25086,-0.442386 l -0.0451,-0.0021 -1.04031,0.29658 0.14954,0.424989 z"
         inkscape:connector-curvature="0" />
      <path
         id="path5014"
         style="fill:#ffffff;fill-opacity:1;fill-rule:nonzero;stroke:none"
         d="m 105.7962,74.824311 c -0.0175,0.0058 -1.01408,0.280012 -1.92694,1.018978 l 0.30827,0.307765 c 0.4141,-0.336346 0.85673,-0.571208 1.19399,-0.720327 0.1684,-0.07456 0.31057,-0.127993 0.40996,-0.162373 0.0492,-0.01698 0.0879,-0.02941 0.11364,-0.03728 l 0.0285,-0.0087 0.008,-0.0021 -0.13527,-0.395993 z"
         inkscape:connector-curvature="0" />
      <path
         id="path5020"
         style="fill:#ffffff;fill-opacity:1;fill-rule:nonzero;stroke:none"
         d="m 103.82836,75.079884 0.41088,0.747251 0.88203,0.252259 -1.96237,0.879387 0.66946,-1.878897 z"
         inkscape:connector-curvature="0" />
      <path
         id="path5026"
         style="fill:#ffffff;fill-opacity:1;fill-rule:nonzero;stroke:none"
         d="m 108.88032,74.736911 0.0363,0.01077 c 0.18036,0.05509 0.99338,0.330961 1.71759,0.91998 l 0.30827,-0.307765 c -0.91286,-0.738966 -1.90945,-1.013179 -1.92694,-1.018978 l -0.13527,0.395993 z"
         inkscape:connector-curvature="0" />
      <path
         id="path5032"
         style="fill:#ffffff;fill-opacity:1;fill-rule:nonzero;stroke:none"
         d="m 109.69062,75.596001 0.88203,-0.252259 0.41088,-0.747251 0.66946,1.878897 -1.96237,-0.879387 z"
         inkscape:connector-curvature="0" />
      <path
         id="path5060"
         style="fill:#ffffff;fill-opacity:1;fill-rule:nonzero;stroke:none"
         d="m 163.01044,46.328289 -0.012,0.0095 c -0.0584,0.04764 -0.35567,0.261372 -0.56226,0.328061 -0.0552,0.01947 -0.0851,0.04681 -0.10352,0.06586 -0.035,0.03935 -0.0396,0.05882 -0.0469,0.07456 l -0.0161,0.06006 c -0.0101,0.05841 -0.0152,0.132136 -0.0212,0.244804 -0.0391,0.772518 -0.0524,3.206882 -0.0524,6.278315 0,7.416175 0.0796,18.511856 0.0796,18.51227 l 0.49554,-0.0029 c -4.6e-4,-0.0021 -0.005,-0.693403 -0.0129,-1.849487 -0.0221,-3.467841 -0.0672,-11.09941 -0.0672,-16.659884 0,-1.853215 0.005,-3.476539 0.0175,-4.638009 0.006,-0.580734 0.0143,-1.045902 0.0244,-1.365265 0.005,-0.159474 0.0111,-0.283326 0.0166,-0.36327 0.003,-0.03977 0.006,-0.06959 0.008,-0.08201 l 9.2e-4,-0.0054 -0.13573,-0.02237 0.12975,0.04101 0.006,-0.01864 -0.13573,-0.02237 0.12975,0.04101 -0.21211,-0.0671 0.19048,0.107697 0.0216,-0.04059 -0.21211,-0.0671 0.19048,0.107697 -0.20613,-0.116395 0.0851,0.204624 c 0.0824,-0.03065 0.10583,-0.06959 0.12101,-0.08823 l -0.20613,-0.116395 0.0851,0.204624 c 0.37545,-0.130479 0.71686,-0.415048 0.72928,-0.421675 l -0.32898,-0.333032 z"
         inkscape:connector-curvature="0" />
      <path
         id="path5066"
         style="fill:#ffffff;fill-opacity:1;fill-rule:nonzero;stroke:none"
         d="m 160.86265,47.161697 c 0.01,0.0012 0.42008,0.0787 0.87881,0.07912 0.30643,-0.0025 0.63587,-0.02817 0.91148,-0.176457 l -0.25904,-0.379839 c -0.12331,0.07249 -0.3888,0.113082 -0.65244,0.110596 -0.19831,0 -0.39569,-0.0174 -0.54155,-0.03521 -0.0732,-0.0087 -0.13343,-0.01781 -0.17484,-0.02444 -0.0414,-0.0062 -0.0617,-0.01036 -0.0621,-0.01036 l -0.0998,0.436587 -4.6e-4,0 z"
         inkscape:connector-curvature="0" />
      <path
         id="path5072"
         style="fill:#ffffff;fill-opacity:1;fill-rule:nonzero;stroke:none"
         d="m 164.53892,48.272964 -4.6e-4,4.14e-4 c -0.0115,0.01574 -0.18726,0.24936 -0.50796,0.471796 -0.32254,0.223263 -0.78081,0.434515 -1.38263,0.434929 l 0,0.4457 c 0.75918,0 1.33984,-0.279184 1.72127,-0.553397 0.38281,-0.274627 0.57652,-0.545526 0.58618,-0.558781 l -0.4164,-0.240661 z"
         inkscape:connector-curvature="0" />
      <path
         id="path5078"
         style="fill:#ffffff;fill-opacity:1;fill-rule:nonzero;stroke:none"
         d="m 163.52806,69.699595 0,-20.19317 -0.49508,0 0,20.19317"
         inkscape:connector-curvature="0" />
      <path
         id="path5084"
         style="fill:#ffffff;fill-opacity:1;fill-rule:nonzero;stroke:none"
         d="m 163.2589,47.71149 -0.0138,0.01533 c -0.0354,0.03811 -0.13666,0.141663 -0.25306,0.22782 -0.11457,0.08989 -0.25122,0.145391 -0.28849,0.139178 l -0.006,-4.14e-4 -0.041,0.444457 0.0474,0.0017 c 0.14861,-0.0012 0.2733,-0.04722 0.38189,-0.101898 0.32024,-0.166102 0.55075,-0.440729 0.56179,-0.449842 L 163.2589,47.71149 z"
         inkscape:connector-curvature="0" />
      <path
         id="path5090"
         style="fill:#ffffff;fill-opacity:1;fill-rule:nonzero;stroke:none"
         d="m 159.77173,46.369669 0,3.654653 0.46011,0 0,-3.654653"
         inkscape:connector-curvature="0" />
      <path
         id="path5096"
         style="fill:#ffffff;fill-opacity:1;fill-rule:nonzero;stroke:none"
         d="m 90.884507,40.830113 c 0.0023,-4.14e-4 1.063774,-0.181014 2.227851,-0.375282 1.162698,-0.193855 2.432601,-0.401378 2.823234,-0.451499 l -0.06488,-0.410077 c -0.821296,0.105626 -5.068109,0.829267 -5.071329,0.830095 l 0.08512,0.406763 z"
         inkscape:connector-curvature="0" />
      <path
         id="path5102"
         style="fill:#ffffff;fill-opacity:1;fill-rule:nonzero;stroke:none"
         d="m 99.04598,39.433036 3.16325,-0.465996 -0.0741,-0.408834 -3.163258,0.465996"
         inkscape:connector-curvature="0" />
      <path
         id="path5108"
         style="fill:#ffffff;fill-opacity:1;fill-rule:nonzero;stroke:none"
         d="m 98.087526,53.652921 c 0,-4.14e-4 -0.402596,-3.456657 -0.841541,-6.965505 -0.219012,-1.754631 -0.447687,-3.522103 -0.639092,-4.878255 -0.09616,-0.678077 -0.182664,-1.253427 -0.254901,-1.674273 -0.03589,-0.210423 -0.0681,-0.382324 -0.09708,-0.51156 -0.01426,-0.06503 -0.02761,-0.118881 -0.04141,-0.164445 -0.01564,-0.04722 -0.02209,-0.07787 -0.05797,-0.132965 l -0.08328,0.04722 0.09754,0 -0.01426,-0.04722 -0.08328,0.04722 0.09754,0 -0.07868,0 0.07178,0.03148 0.0069,-0.03148 -0.07868,0 0.07178,0.03148 4.6e-4,-8.28e-4 c 0.0083,-0.01657 0.103985,-0.08864 0.247999,-0.149533 0.432503,-0.194269 1.272204,-0.372383 1.777864,-0.369484 0.119169,0 0.219012,0.0099 0.280667,0.02527 l 0.05981,0.0203 0.0041,0.0025 0.03221,-0.03107 -0.03957,0.02237 0.0074,0.0087 0.03221,-0.03107 -0.03957,0.02237 c 0.0046,0.0058 0.02945,0.05012 0.05889,0.113082 0.230975,0.488364 0.847062,2.178791 1.412077,4.749019 0.565941,2.572714 1.085861,6.034755 1.139691,10.097828 l 0.45965,-0.005 c -0.0575,-4.364625 -0.64921,-8.040817 -1.263,-10.68022 -0.30689,-1.319701 -0.619309,-2.380102 -0.87375,-3.138537 -0.12745,-0.379424 -0.240177,-0.683046 -0.331279,-0.907553 -0.04555,-0.112253 -0.08558,-0.20421 -0.119628,-0.277113 -0.03543,-0.07415 -0.06119,-0.125094 -0.09294,-0.171072 -0.08512,-0.117638 -0.20843,-0.164859 -0.327138,-0.194683 -0.121469,-0.029 -0.253981,-0.03894 -0.399836,-0.03935 -0.446766,0.0012 -1.020063,0.100656 -1.502718,0.24149 -0.241098,0.07125 -0.457809,0.151604 -0.62897,0.243975 -0.08558,0.04681 -0.161039,0.0961 -0.224534,0.158646 -0.06165,0.06089 -0.121929,0.144562 -0.123309,0.258472 -4.6e-4,0.06089 0.02117,0.123438 0.05613,0.172315 l 0.102145,-0.05758 -0.110427,0.04432 0.0078,0.01326 0.102605,-0.05758 -0.110427,0.04432 9.2e-4,0.0025 c 0.01058,0.02402 0.03727,0.123437 0.06488,0.260958 0.215331,1.05253 0.668999,4.538596 1.066074,7.746721 0.198768,1.605098 0.383732,3.143507 0.519464,4.280952 0.135272,1.137031 0.220853,1.871027 0.220853,1.872684 l 0.457809,-0.04308 z"
         inkscape:connector-curvature="0" />
      <path
         id="path5114"
         style="fill:#ffffff;fill-opacity:1;fill-rule:nonzero;stroke:none"
         d="m 91.000915,39.036835 5.372241,-1.608826 0,-1.286564 -0.460109,0 0,0.987498 -5.057527,1.514798 0.145395,0.393094 z"
         inkscape:connector-curvature="0" />
      <path
         id="path5120"
         style="fill:#ffffff;fill-opacity:1;fill-rule:nonzero;stroke:none"
         d="m 101.75598,36.028529 c -0.53051,0.154918 -0.75136,0.210423 -1.27634,0.315635 -0.52545,0.104383 -1.347206,0.255987 -3.044551,0.593575 l 0.04969,0.202553 0.230055,0 0,-1.061643 -0.46011,0 0,1.319288 0.279747,-0.05551 c 1.695504,-0.337588 2.512659,-0.48795 3.044549,-0.59399 0.53143,-0.10604 0.78541,-0.169829 1.31913,-0.32599 l -0.14217,-0.393922 z"
         inkscape:connector-curvature="0" />
      <path
         id="path5126"
         style="fill:#ffffff;fill-opacity:1;fill-rule:nonzero;stroke:none"
         d="m 99.986398,46.460259 -0.230055,0 c 0,0.114324 -0.102604,0.206695 -0.230055,0.207109 l -1.265302,0 c -0.12699,-4.14e-4 -0.229594,-0.09279 -0.230054,-0.207109 4.6e-4,-0.114324 0.103064,-0.207109 0.230054,-0.207109 l 1.265302,0 c 0.127451,0 0.230055,0.09278 0.230055,0.207109 l 0.230055,0 0.230052,0 c 0,-0.342973 -0.308731,-0.621328 -0.690162,-0.621328 l -1.265302,0 c -0.381431,0 -0.689704,0.278355 -0.690164,0.621328 4.6e-4,0.342973 0.308733,0.621328 0.690164,0.621328 l 1.265302,0 c 0.381431,0 0.690162,-0.278355 0.690162,-0.621328 l -0.230052,0 z"
         inkscape:connector-curvature="0" />
      <path
         id="path5132"
         style="fill:#ffffff;fill-opacity:1;fill-rule:nonzero;stroke:none"
         d="m 99.627053,44.630695 -0.230055,0 c 0,0.114324 -0.102604,0.206695 -0.230055,0.207109 l -1.1742,0 c -0.12745,-4.14e-4 -0.230055,-0.09278 -0.230515,-0.207109 4.6e-4,-0.114324 0.103065,-0.206695 0.230515,-0.207109 l 1.1742,0 c 0.127451,4.14e-4 0.230055,0.09278 0.230055,0.207109 l 0.230055,0 0.230055,0 c 0,-0.342973 -0.308734,-0.621328 -0.690165,-0.621328 l -1.1742,0 c -0.381891,0 -0.690164,0.278355 -0.690164,0.621328 0,0.342973 0.308273,0.621328 0.690164,0.621328 l 1.1742,0 c 0.381431,0 0.690165,-0.278355 0.690165,-0.621328 l -0.230055,0 z"
         inkscape:connector-curvature="0" />
      <path
         id="path5138"
         style="fill:#ffffff;fill-opacity:1;fill-rule:nonzero;stroke:none"
         d="m 99.180792,42.818488 -0.230055,0 c -4.6e-4,0.114324 -0.103064,0.206695 -0.230055,0.207109 l -1.015462,0 c -0.12745,-4.14e-4 -0.230055,-0.09278 -0.230515,-0.207109 4.6e-4,-0.114324 0.103065,-0.207109 0.230515,-0.207109 l 1.015462,0 c 0.126991,0 0.229595,0.09278 0.230055,0.207109 l 0.230055,0 0.230055,0 c -4.6e-4,-0.342973 -0.308734,-0.621328 -0.690165,-0.621328 l -1.015462,0 c -0.381891,0 -0.690165,0.278355 -0.690165,0.621328 0,0.342973 0.308274,0.621328 0.690165,0.621328 l 1.015462,0 c 0.381431,0 0.689705,-0.278355 0.690165,-0.621328 l -0.230055,0 z"
         inkscape:connector-curvature="0" />
      <path
         id="path5144"
         style="fill:#ffffff;fill-opacity:1;fill-rule:nonzero;stroke:none"
         d="m 98.704073,40.928614 -0.230055,0 c 0,0.114324 -0.102604,0.206695 -0.230055,0.207109 l -0.804732,0 c -0.12699,-4.14e-4 -0.229594,-0.09278 -0.230055,-0.207109 4.61e-4,-0.114324 0.103065,-0.206695 0.230055,-0.207109 l 0.804732,0 c 0.127451,4.14e-4 0.230055,0.09278 0.230055,0.207109 l 0.230055,0 0.230055,0 c 0,-0.342973 -0.308734,-0.621328 -0.690165,-0.621328 l -0.804732,0 c -0.381431,0 -0.689704,0.278355 -0.690164,0.621328 4.6e-4,0.342973 0.308733,0.621328 0.690164,0.621328 l 0.804732,0 c 0.381431,0 0.690165,-0.278355 0.690165,-0.621328 l -0.230055,0 z"
         inkscape:connector-curvature="0" />
      <path
         id="path5150"
         style="fill:#ffffff;fill-opacity:1;fill-rule:nonzero;stroke:none"
         d="m 100.24636,48.263768 -0.23005,0 c -4.6e-4,0.114324 -0.103069,0.207109 -0.23006,0.207109 l -1.265302,0 c -0.12745,0 -0.230054,-0.09278 -0.230054,-0.207109 0,-0.114324 0.102604,-0.206695 0.230054,-0.207109 l 1.265302,0 c 0.126991,4.14e-4 0.2296,0.09278 0.23006,0.207109 l 0.23005,0 0.23005,0 c 0,-0.342973 -0.30873,-0.621328 -0.69016,-0.621328 l -1.265302,0 c -0.381431,0 -0.690164,0.278355 -0.690164,0.621328 0,0.342973 0.308733,0.621328 0.690164,0.621328 l 1.265302,0 c 0.38143,0 0.69016,-0.278355 0.69016,-0.621328 l -0.23005,0 z"
         inkscape:connector-curvature="0" />
      <path
         id="path5156"
         style="fill:#ffffff;fill-opacity:1;fill-rule:nonzero;stroke:none"
         d="m 100.39083,50.084674 -0.23005,0 c 0,0.114324 -0.10261,0.206695 -0.23006,0.207109 l -1.265302,0 c -0.12699,-4.14e-4 -0.229594,-0.09278 -0.230054,-0.207109 4.6e-4,-0.114324 0.103064,-0.206695 0.230054,-0.207109 l 1.265302,0 c 0.12745,4.14e-4 0.23006,0.09279 0.23006,0.207109 l 0.23005,0 0.23005,0 c 0,-0.342973 -0.30873,-0.621328 -0.69016,-0.621328 l -1.265302,0 c -0.381431,0 -0.689704,0.278355 -0.690164,0.621328 4.6e-4,0.342973 0.308733,0.621328 0.690164,0.621328 l 1.265302,0 c 0.38143,0 0.69016,-0.278355 0.69016,-0.621328 l -0.23005,0 z"
         inkscape:connector-curvature="0" />
      <path
         id="path5162"
         style="fill:#ffffff;fill-opacity:1;fill-rule:nonzero;stroke:none"
         d="m 100.6214,51.896882 -0.23005,0 c 0,0.114324 -0.10261,0.206695 -0.23006,0.207109 l -1.265302,0 c -0.12699,-4.14e-4 -0.229594,-0.09278 -0.230054,-0.207109 4.6e-4,-0.114324 0.103064,-0.206695 0.230054,-0.207109 l 1.265302,0 c 0.12745,4.14e-4 0.23006,0.09278 0.23006,0.207109 l 0.23005,0 0.23005,0 c 0,-0.342973 -0.30873,-0.621328 -0.69016,-0.621328 l -1.265302,0 c -0.381431,0 -0.689704,0.278355 -0.690164,0.621328 4.6e-4,0.342973 0.308733,0.621328 0.690164,0.621328 l 1.265302,0 c 0.38143,0 0.69016,-0.278355 0.69016,-0.621328 l -0.23005,0 z"
         inkscape:connector-curvature="0" />
      <path
         id="path5168"
         style="fill:#ffffff;fill-opacity:1;fill-rule:nonzero;stroke:none"
         d="m 106.61612,74.498321 c -0.0175,0.270899 0.0423,0.48795 0.18036,0.649081 0.13758,0.161545 0.3115,0.251017 0.52223,0.268414 0.21625,0.01698 0.40259,-0.04391 0.55765,-0.183085 0.15598,-0.138763 0.2434,-0.354986 0.26134,-0.647838 0.0129,-0.189298 -0.0143,-0.362028 -0.0801,-0.516945 -0.0506,-0.118881 -0.13251,-0.217051 -0.24477,-0.294924 -0.11135,-0.07787 -0.23604,-0.122609 -0.37453,-0.134207 -0.22178,-0.01781 -0.4095,0.04266 -0.56318,0.181013 -0.15275,0.13835 -0.2388,0.364513 -0.25904,0.678491 m -0.30321,-0.02817 c 0.0244,-0.374868 0.14355,-0.65488 0.36072,-0.839207 0.2158,-0.185156 0.47484,-0.265515 0.77851,-0.241076 0.19647,0.01574 0.37223,0.07539 0.52775,0.178529 0.15597,0.10314 0.2756,0.243975 0.35888,0.422917 0.0828,0.179357 0.11733,0.387295 0.10215,0.624642 -0.0207,0.325576 -0.1293,0.58322 -0.32438,0.773761 -0.21533,0.209595 -0.48588,0.301137 -0.81118,0.274627 -0.32805,-0.02692 -0.5848,-0.164031 -0.76976,-0.412148 -0.16702,-0.224506 -0.24202,-0.485464 -0.22269,-0.782045"
         inkscape:connector-curvature="0" />
      <path
         id="path5174"
         style="fill:#ffffff;fill-opacity:1;fill-rule:nonzero;stroke:none"
         d="m 128.14332,37.431281 2.30055,0.207109 0.0492,-0.443628 -2.30055,-0.207109"
         inkscape:connector-curvature="0" />
      <path
         id="path5180"
         style="fill:#ffffff;fill-opacity:1;fill-rule:nonzero;stroke:none"
         d="m 128.80818,56.555146 1.61084,0.06918 0.0235,-0.445286 -1.61084,-0.06917"
         inkscape:connector-curvature="0" />
      <path
         id="path5186"
         style="fill:#ffffff;fill-opacity:1;fill-rule:nonzero;stroke:none"
         d="m 134.12746,33.133761 c 0.002,0 0.70581,0.05799 1.86575,0.167344 3.4775,0.326405 11.03711,1.114249 15.75415,2.157252 l 0.069,0.007 c 0.0736,-0.0017 0.10674,-0.01326 0.1592,-0.02527 0.16748,-0.04391 0.42744,-0.137107 0.65841,-0.222436 0.22914,-0.0845 0.42054,-0.159474 0.42146,-0.159888 l -0.19738,-0.408834 c -4.6e-4,4.14e-4 -0.24662,0.09651 -0.5098,0.192611 -0.1316,0.04805 -0.26733,0.09568 -0.37545,0.130479 -0.0538,0.01698 -0.10077,0.03107 -0.1339,0.03976 l -0.0359,0.0083 -0.003,4.14e-4 0.0166,0.112253 0,-0.113081 -0.0166,8.28e-4 0.0166,0.112253 0,-0.113081 0,0.185984 0.0492,-0.180185 -0.0492,-0.0058 0,0.185984 0.0492,-0.180185 c -6.36102,-1.404617 -17.68708,-2.334538 -17.69352,-2.335781 l -0.0446,0.444043 z"
         inkscape:connector-curvature="0" />
      <path
         id="path5192"
         style="fill:#ffffff;fill-opacity:1;fill-rule:nonzero;stroke:none"
         d="m 151.55877,35.241803 0,3.210196 0.49508,0 0,-3.210196"
         inkscape:connector-curvature="0" />
      <path
         id="path5198"
         style="fill:#ffffff;fill-opacity:1;fill-rule:nonzero;stroke:none"
         d="m 153.40284,40.376709 c 4.6e-4,0 0.0971,0.05343 0.27008,0.152433 0.60597,0.346701 2.13261,1.248041 3.54331,2.298914 0.70489,0.524816 1.38079,1.087739 1.89519,1.631194 0.51624,0.541799 0.86225,1.069099 0.93402,1.484561 l 0.48864,-0.07166 c -0.12009,-0.637897 -0.62253,-1.290706 -1.28739,-1.948072 -1.99871,-1.959255 -5.57699,-3.920995 -5.58573,-3.927623 l -0.25812,0.380253 z"
         inkscape:connector-curvature="0" />
      <path
         id="path5204"
         style="fill:#ffffff;fill-opacity:1;fill-rule:nonzero;stroke:none"
         d="m 162.47119,46.218562 c 0,0.185984 -0.35981,0.33676 -0.80335,0.33676 -0.44355,0 -0.80289,-0.150776 -0.80289,-0.33676 0,-0.185984 0.35934,-0.33676 0.80289,-0.33676 0.44354,0 0.80335,0.150776 0.80335,0.33676"
         inkscape:connector-curvature="0" />
    </g>
  </g>
</svg>
