<?xml version="1.0" encoding="UTF-8" standalone="no"?>
<!-- Created with Inkscape (http://www.inkscape.org/) -->

<svg
   xmlns:dc="http://purl.org/dc/elements/1.1/"
   xmlns:cc="http://creativecommons.org/ns#"
   xmlns:rdf="http://www.w3.org/1999/02/22-rdf-syntax-ns#"
   xmlns:svg="http://www.w3.org/2000/svg"
   xmlns="http://www.w3.org/2000/svg"
   xmlns:sodipodi="http://sodipodi.sourceforge.net/DTD/sodipodi-0.dtd"
   xmlns:inkscape="http://www.inkscape.org/namespaces/inkscape"
   width="177.13"
   height="122.94052"
   id="svg3847"
   version="1.1"
   inkscape:version="0.48.2 r9819"
   sodipodi:docname="sense-white.svg">
  <defs
     id="defs3849">
    <clipPath
       id="clipPath4716"
       clipPathUnits="userSpaceOnUse">
      <path
         id="path4718"
         d="m 361.51,284.4 210.89,0 0,77.04 -210.89,0 0,-77.04 z"
         inkscape:connector-curvature="0" />
    </clipPath>
    <clipPath
       id="clipPath4730"
       clipPathUnits="userSpaceOnUse">
      <path
         id="path4732"
         d="m 348.48,268.74 227.52,0 0,111.42 -227.52,0 0,-111.42 z"
         inkscape:connector-curvature="0" />
    </clipPath>
    <clipPath
       id="clipPath5052"
       clipPathUnits="userSpaceOnUse">
      <path
         id="path5054"
         d="m 348.48,268.74 227.52,0 0,111.42 -227.52,0 0,-111.42 z"
         inkscape:connector-curvature="0" />
    </clipPath>
  </defs>
  <sodipodi:namedview
     id="base"
     pagecolor="#ffffff"
     bordercolor="#666666"
     borderopacity="1.0"
     inkscape:pageopacity="0"
     inkscape:pageshadow="2"
     inkscape:zoom="1.4"
     inkscape:cx="183.11054"
     inkscape:cy="70.395371"
     inkscape:document-units="px"
     inkscape:current-layer="layer1"
     showgrid="false"
     fit-margin-top="10"
     fit-margin-left="10"
     fit-margin-right="10"
     fit-margin-bottom="10"
     inkscape:window-width="1440"
     inkscape:window-height="796"
     inkscape:window-x="38"
     inkscape:window-y="29"
     inkscape:window-maximized="0" />
  <metadata
     id="metadata3852">
    <rdf:RDF>
      <cc:Work
         rdf:about="">
        <dc:format>image/svg+xml</dc:format>
        <dc:type
           rdf:resource="http://purl.org/dc/dcmitype/StillImage" />
        <dc:title />
      </cc:Work>
    </rdf:RDF>
  </metadata>
  <g
     inkscape:label="Layer 1"
     inkscape:groupmode="layer"
     id="layer1"
     transform="translate(-376.15842,-519.47088)"
     style="display:inline" />
  <g
     inkscape:groupmode="layer"
     id="layer2"
     inkscape:label="Layer"
     style="display:inline"
     transform="translate(-1.7499355,3.3125)">
    <g
       id="g9290"
       transform="matrix(1.0829875,0,0,1.0829875,-7.2895484,-4.6377725)">
      <g
         transform="translate(1.7510095,0)"
         id="g5255">
        <path
           style="fill:none;stroke:#ffffff;stroke-width:0.18583885;stroke-miterlimit:4;stroke-opacity:1;stroke-dasharray:none;display:inline"
           d="m 76.10936,8.110084 38.88778,1.614314 c 2.07828,0.08627 3.91163,4.705659 3.90484,5.886042 l -0.4512,78.44786 c -0.008,1.39949 -2.1621,6.08714 -4.22633,6.49417 l -38.04578,7.50198 c -2.50151,0.49325 -5.32515,-3.82847 -5.33348,-6.03687 L 70.51683,14.950039 c -0.008,-2.134769 2.94815,-6.94973 5.59253,-6.839955 z"
           id="rect3730"
           inkscape:connector-curvature="0"
           sodipodi:nodetypes="sssssssss" />
        <path
           style="fill:none;stroke:#ffffff;stroke-width:0.18583885;stroke-miterlimit:4;stroke-opacity:1;stroke-dasharray:none;display:inline"
           d="m 115.88959,99.40105 c -1.49601,1.58095 -1.41224,1.69812 -2.76703,1.9736 l -37.43611,7.61223 c -3.59095,0.73018 -6.60016,-4.57544 -6.60822,-7.14704 L 68.80621,15.013384 c -0.009,-3.007973 3.12173,-8.129179 6.6423,-7.981449 l 38.16137,1.601344 c 2.66624,0.111883 4.59667,4.467568 4.88845,5.32368"
           id="rect3730-0"
           inkscape:connector-curvature="0"
           sodipodi:nodetypes="cssssssc" />
        <path
           style="fill:none;stroke:#ffffff;stroke-width:0.18583885;stroke-miterlimit:4;stroke-opacity:1;stroke-dasharray:none;display:inline"
           d="m 73.67096,108.77004 c -2.11676,-0.46977 -5.32109,-2.25922 -5.36362,-9.34136 L 67.81518,17.481859 C 67.76418,8.986544 72.34093,7.202562 74.9161,7.056007"
           id="rect3730-0-7"
           inkscape:connector-curvature="0"
           sodipodi:nodetypes="cssc" />
        <path
           style="fill:none;stroke:#ffffff;stroke-width:0.18583885;stroke-miterlimit:4;stroke-opacity:1;stroke-dasharray:none;display:inline"
           d="M 63.79559,106.58555 C 62.40524,106.2455 59.46523,103.98906 59.4178,97.65929 L 58.82188,18.125165 C 58.75818,9.629935 63.29573,7.68405 65.27421,7.511553"
           id="rect3730-0-7-7"
           inkscape:connector-curvature="0"
           sodipodi:nodetypes="cssc" />
        <path
           style="opacity:0.75833333;fill:none;stroke:#ffffff;stroke-width:0.18583885;stroke-miterlimit:4;stroke-opacity:1;stroke-dasharray:none;display:inline"
           d="m 63.7568,106.57258 c -1.52007,-0.34005 -5.0206,-1.6379 -5.07825,-9.00409 L 58.05668,18.112192 C 57.98368,8.786935 63.15317,7.671077 65.13165,7.49858"
           id="rect3730-0-7-7-3"
           inkscape:connector-curvature="0"
           sodipodi:nodetypes="cssc" />
        <path
           style="opacity:0.89166667;fill:none;stroke:#ffffff;stroke-width:0.18583885;stroke-miterlimit:4;stroke-opacity:1;stroke-dasharray:none;display:inline"
           d="m 64.16219,26.941669 c 1.78218,0 3.2114,2.161168 3.21693,3.94334 l 0.0519,16.707311 c 0.006,1.78217 -1.48664,3.94334 -3.26882,3.94334 -1.78218,0 -3.21694,-2.3687 -3.21694,-4.15088 l 0,-16.811085 c 0,-1.782182 1.43476,-3.632026 3.21694,-3.632026 z"
           id="rect4575"
           inkscape:connector-curvature="0"
           sodipodi:nodetypes="sssssss" />
        <path
           style="opacity:0.89166667;fill:none;stroke:#ffffff;stroke-width:0.18583885;stroke-miterlimit:4;stroke-opacity:1;stroke-dasharray:none;display:inline"
           d="m 67.37198,48.19976 c -0.2539,1.41896 -1.27718,2.59115 -2.50934,2.55761 -1.78152,-0.0485 -2.85373,-2.10927 -2.85373,-3.89146 l 0,-15.72147 c 0,-1.782183 1.43475,-4.044238 3.79555,-3.528254"
           id="rect4575-5"
           inkscape:connector-curvature="0"
           sodipodi:nodetypes="csssc" />
        <path
           style="opacity:0.89166667;fill:none;stroke:#ffffff;stroke-width:0.18583885;stroke-miterlimit:4;stroke-opacity:1;stroke-dasharray:none;display:inline"
           d="m 67.36418,33.631726 c -1.71268,1.669349 -2.99065,-0.986533 -2.89843,-2.20134 0.1462,-1.926001 1.27747,-2.898429 2.34809,-2.513195"
           id="rect4596"
           inkscape:connector-curvature="0"
           sodipodi:nodetypes="csc" />
        <path
           style="fill:#ffffff;stroke:#ffffff;stroke-width:0.20648766;stroke-linecap:butt;stroke-linejoin:miter;stroke-miterlimit:4;stroke-opacity:1;stroke-dasharray:none;display:inline"
           d="M 65.12596,7.508151 74.93128,7.050556"
           id="path4602"
           inkscape:connector-curvature="0"
           sodipodi:nodetypes="cc" />
        <path
           style="fill:#ffffff;stroke:#000000;stroke-width:0.20648766;stroke-linecap:butt;stroke-linejoin:miter;stroke-miterlimit:4;stroke-opacity:1;stroke-dasharray:none;display:inline"
           d="m 63.65859,106.60611 9.06218,1.87114"
           id="path4604"
           inkscape:connector-curvature="0" />
        <path
           style="fill:#ffffff;stroke:#ffffff;stroke-width:0.20648766;stroke-linecap:butt;stroke-linejoin:miter;stroke-miterlimit:4;stroke-opacity:1;stroke-dasharray:none;display:inline"
           d="M 59.43936,97.58062 68.24471,99.305"
           id="path4606"
           inkscape:connector-curvature="0" />
        <path
           style="fill:#ffffff;stroke:#ffffff;stroke-width:0.20648766;stroke-linecap:butt;stroke-linejoin:miter;stroke-miterlimit:4;stroke-opacity:1;stroke-dasharray:none;display:inline"
           d="m 58.88902,18.112283 8.91542,-0.146757"
           id="path4608"
           inkscape:connector-curvature="0" />
        <path
           style="opacity:0.89166667;fill:none;stroke:#ffffff;stroke-width:0.18583885;stroke-miterlimit:4;stroke-opacity:1;stroke-dasharray:none;display:inline"
           d="m 67.32983,48.45714 c -1.25406,2.03624 -2.74016,0.0258 -2.69663,-1.72438 0.0497,-1.99885 1.35084,-3.48546 2.75167,-1.90783"
           id="rect4596-7"
           inkscape:connector-curvature="0"
           sodipodi:nodetypes="csc" />
        <path
           style="fill:none;stroke:#ffffff;stroke-width:0.18583885;stroke-miterlimit:4;stroke-opacity:1;stroke-dasharray:none;display:inline"
           d="m 64.39237,69.58692 c 2.04188,0.16923 3.55408,2.67639 3.33869,6.05368 -0.15385,2.41243 -1.18262,4.32002 -2.9718,4.29261 -2.18762,-0.0335 -3.71004,-2.97023 -3.78787,-5.39328 -0.0711,-2.21435 0.72036,-5.17684 3.42098,-4.95301 z"
           id="rect4632"
           inkscape:connector-curvature="0"
           sodipodi:nodetypes="sssss" />
        <path
           style="fill:none;stroke:#ffffff;stroke-width:0.18583885;stroke-miterlimit:4;stroke-opacity:1;stroke-dasharray:none;display:inline"
           d="m 95.47834,11.63528 15.97506,0.466976 c 3.44461,0.100691 4.03511,3.793175 4.02409,4.958041 l -0.7264,76.785513 c -0.0287,3.03407 -2.27736,4.45646 -4.33541,4.85427 l -15.30054,2.95751 c -3.00974,0.58176 -4.03005,-2.90968 -4.02409,-5.94388 l 0.15566,-79.224159 c 0.008,-4.022214 2.54782,-4.903491 4.23163,-4.854271 z"
           id="rect4637"
           inkscape:connector-curvature="0"
           sodipodi:nodetypes="sssssssss" />
        <path
           style="fill:none;stroke:#ffffff;stroke-width:0.20648766;stroke-linecap:butt;stroke-linejoin:miter;stroke-miterlimit:4;stroke-opacity:1;stroke-dasharray:none;display:inline"
           d="m 98.13134,93.23908 c 0,0 7.31593,0.90152 13.43849,5.10429"
           id="path4646"
           inkscape:connector-curvature="0"
           sodipodi:nodetypes="cc" />
        <path
           style="opacity:0.675;fill:none;stroke:#ffffff;stroke-width:0.20648766;stroke-linecap:butt;stroke-linejoin:miter;stroke-miterlimit:4;stroke-opacity:1;stroke-dasharray:none;display:inline"
           d="m 98.2928,17.047923 c 0,0 8.76886,1.247805 11.99748,-4.915944"
           id="path4648"
           inkscape:connector-curvature="0"
           sodipodi:nodetypes="cc" />
        <path
           style="fill:none;stroke:#ffffff;stroke-width:0.62900001;stroke-miterlimit:4;stroke-opacity:1;stroke-dasharray:none;display:inline"
           d="m 91.27558,16.957772 6.63556,0.0947 c 0.931595,0.01329 1.17413,1.177641 1.17036,2.913443 L 98.92584,91.56282 c -0.002,0.85465 -1.03052,2.22287 -1.79299,2.3378 l -6.04541,0.91128"
           id="rect4640"
           inkscape:connector-curvature="0"
           sodipodi:nodetypes="cssssc" />
        <path
           style="fill:#ffffff;stroke:#ffffff;stroke-width:0.62900001;stroke-linecap:butt;stroke-linejoin:miter;stroke-miterlimit:4;stroke-opacity:1;stroke-dasharray:none;display:inline"
           d="m 91.483071,16.769172 -0.16219,78.164495"
           id="path4757"
           inkscape:connector-curvature="0"
           sodipodi:nodetypes="cc" />
        <path
           style="fill:none;stroke:#ffffff;stroke-width:0.72899997;stroke-miterlimit:4;stroke-opacity:1;stroke-dasharray:none;display:inline"
           d="m 65.143416,7.1196708 9.54335,-0.4144688 39.064914,2.009737 c 2.73925,0.1409235 5.26697,5.10639 5.25233,7.117572 l -0.56768,77.958069 c -0.0211,2.90356 -3.00782,7.16048 -4.84685,7.52306 0,0 -36.13422,8.04358 -37.83893,7.94754 -1.51524,-0.0854 -12.21218,-2.8384 -12.21218,-2.8384 -3.243489,-1.24451 -5.008764,-4.08131 -5.054209,-8.953897 L 57.745033,18.219079 C 57.680101,11.257126 62.23942,7.1209125 65.143416,7.1196708 z"
           id="rect3982"
           inkscape:connector-curvature="0"
           sodipodi:nodetypes="scsssssssss" />
      </g>
    </g>
  </g>
</svg>
